<?xml version="1.0" encoding="UTF-8"?>
<svg id="Layer_2" data-name="Layer 2" xmlns="http://www.w3.org/2000/svg" width="1091.28" height="686.16" viewBox="0 0 1091.28 686.16">
  <g id="Layer_1-2" data-name="Layer 1">
    <path d="M1091.28,411.696c-.1531,.6879-.3836,1.3687-.4465,2.0648-.3473,3.8402-1.6725,7.3188-3.9616,10.3917-2.6255,3.5244-6.0876,5.0137-10.5044,4.0453-3.586-.7861-7.1978-1.4544-10.7871-2.2268-.7699-.1656-1.5496-.4575-2.2234-.8607-1.2635-.756-2.483-.6876-3.5982,.1251-3.7518,2.7343-7.0937,2.0117-10.3594-.9356-2.2534-2.0336-4.6123-4.024-7.6429-4.8071-2.2313-.5765-4.506-1.0554-6.7913-1.3281-1.6003-.1909-2.4121-.9315-2.8908-2.3799-.7559-2.2872-.6014-4.5672-.1694-6.8689,.162-.863,.3215-1.7267,.4656-2.5927,.3755-2.2568-.8519-3.8352-2.3443-5.2282-.8692-.8114-2.0465-.6339-2.8363,.4413-1.1301,1.5387-2.5692,1.929-4.2089,1.1927-2.4862-1.1163-4.923-.7824-7.4571-.2418-3.6798,.7851-7.3166,1.6408-10.766,3.205-2.5712,1.166-4.294,2.8919-4.8508,5.7816-.895,4.6447-3.1064,8.6818-5.9734,12.415-1.5059,1.9609-2.8239,4.0681-4.1899,6.1336-.7298,1.1034-1.0149,2.3269-.7694,3.6604,.6246,3.3919-.1646,6.418-2.0148,9.3461-2.1913,3.4678-2.0781,7.2926-.9342,11.1098,.3196,1.0663,.7128,2.1342,1.2409,3.1102,1.9736,3.648,4.0172,7.2582,6.1455,11.0819,.9787-.2592,1.9664-.5077,2.9464-.7835,1.6141-.4544,3.2108-.9764,4.8371-1.3806,3.0764-.7647,5.8791-.2457,8.2296,1.9997,1.2127,1.1586,2.4305,2.3188,3.558,3.5584,1.6133,1.7739,3.1569,3.6118,4.7093,5.4402,1.3797,1.6249,1.5163,2.3992,.018,3.9397-1.4834,1.5252-3.2167,2.8433-4.9798,4.0484-1.3061,.8928-2.8254,1.4805-4.2679,2.1659-2.4496,1.1638-3.8501,3.0395-4.0292,5.7773-.0104,.1594-.0302,.3185-.05,.4771-.3605,2.8809-1.2781,5.457-3.8874,6.985-.1146,4.8543,3.0047,10.4971,9.0326,12.325,1.2976,.3935,2.6272,.6855,3.95,.9902,2.7108,.6243,4.3147,2.3238,4.8405,5.0204,.7291,3.7403,.6118,7.482-.2176,11.1898-.6226,2.7826-2.1477,5.0401-4.6109,6.4577-5.0996,2.935-10.5494,4.9701-16.4378,5.5851-2.9417,.3073-5.7299-.3769-8.2319-2.0054-1.9645-1.2787-2.1558-2.1416-1.0323-4.1642,.2713-.4884,.5681-.9662,.7963-1.4744,1.0786-2.4005,.8275-4.3079-1.0402-6.1314-1.134-1.107-2.439-2.0665-3.7677-2.9391-1.6676-1.095-3.4132-2.0797-5.1694-3.0302-4.4786-2.4238-7.4072-6.2361-9.7046-10.641-1.457-2.7935-1.3011-5.5346,.2166-8.2376,.5474-.9749,1.1994-1.8946,1.6998-2.8916,.6768-1.3485,.6072-2.3889-.6097-3.1758-3.0779-1.9904-6.2048-3.9389-9.4764-5.5761-1.0686-.5347-2.7555-.3916-3.9689,.0131-6.5501,2.1854-13.4495,2.7586-20.0842,4.5288-5.5785,1.4885-10.9498,3.5013-16.1212,6.0589-.4297,.2124-.8517,.4416-1.2883,.6387-1.9809,.8944-2.5521,.7124-3.6887-1.1564-1.0815-1.7781-2.2238-2.3269-4.1834-2.0097-1.962,.3176-3.17,1.6989-2.9841,3.6711,.1033,1.0951,.5057,2.1663,.8129,3.2369,.4402,1.5337,1.0956,3.0308,1.324,4.5925,.2026,1.3858,.131,2.8751-.1453,4.2534-.4676,2.3326-1.0858,2.8709-3.4938,2.6111-3.8822-.4186-7.7709-.945-11.5883-1.7509-4.5581-.9624-9.1197-1.5838-13.779-1.6266-2.3909-.0219-4.7964-.1565-7.1658-.4657-5.6466-.7369-9.9954-3.6256-13.0909-8.3755-1.177-1.806-2.27-3.6711-3.3211-5.554-1.9503-3.4938-4.5442-6.358-7.9641-8.4612-.6804-.4184-1.3336-.8821-1.9879-1.3413-3.9834-2.7956-6.0005-6.6762-5.6928-11.4888,.3106-4.8585,1.0855-9.6854,1.539-14.5371,.364-3.894,.5858-7.8027,.7923-11.709,.0497-.9398-.1078-1.9235-.3507-2.8391-.5189-1.9566-2.2862-2.8588-4.0838-1.9363-1.101,.565-2.1207,1.4532-2.9156,2.4127-1.3215,1.595-2.4121,3.3792-3.6401,5.0543-.7538,1.0282-1.4816,2.1076-2.3977,2.9783-2.1854,2.0771-5.3733,1.8333-7.1021-.6437-.7939-1.1377-1.3621-2.5711-1.5785-3.942-.3464-2.1961-.3259-4.4512-.4371-6.6826-.0383-.7685-.0062-1.5404-.0062-2.6994-2.1028,.4849-3.9068,.7621-5.6173,1.3238-3.7124,1.2191-7.308,2.7765-11.2809,3.1196-1.7264,.1491-2.4931,2.114-1.8699,3.8328,.4826,1.3311,1.0354,2.7341,1.0598,4.114,.0535,3.0339-1.5165,5.3136-4.0355,6.9286-1.2097,.7756-2.5111,1.4108-3.7031,2.2107-1.5568,1.0448-1.8301,1.6608-1.1663,3.4382,1.0046,2.6899,2.0723,5.3711,3.3355,7.947,3.8119,7.7728,5.4888,16.144,6.9468,24.5619,.3329,1.9218,.2275,4.0428-.2059,5.9519-1.5906,7.0058-3.3385,13.9783-5.1736,20.9247-.5671,2.1468-1.5352,4.1993-2.4354,6.244-1.3368,3.0363-3.1969,5.7201-5.7891,7.8395-2.7108,2.2164-4.7826,4.926-6.26,8.0867-2.0795,4.449-5.0912,8.079-9.1749,10.8466-2.744,1.8597-4.9788,4.2343-6.6898,7.1022-1.9943,3.343-4.622,6.097-7.84,8.3084-1.1807,.8114-2.3243,1.717-3.3319,2.7314-2.2983,2.3136-2.7021,4.9534-1.3599,7.8974,.232,.5089,.4588,1.0212,.7146,1.5183,2.4313,4.726-.2274,9.5457-3.658,11.3357-1.8192,.9491-3.8383,1.5424-5.8078,2.1689-1.8992,.604-3.9086,.8895-5.7668,1.5883-3.7915,1.426-4.5407,4.3559-2.05,7.5722,1.027,1.3262,2.1769,2.5583,3.1836,3.8987,1.5765,2.0992,2.059,4.499,1.5256,7.0474-.5517,2.6355-1.7547,4.6999-4.6213,5.5615-2.2766,.6841-2.2588,.9429-2.0701,3.3231,.2672,3.3693,1.0183,6.6226,2.1532,9.8038,.5288,1.4824,1.4491,2.4313,2.9906,2.7892,2.256,.524,4.5296,.9912,6.7526,1.6323,1.9866,.5729,4.0182,1.1455,5.8472,2.0769,3.9384,2.0056,5.2,5.4699,3.837,9.6891-.9604,2.9729-2.7675,5.1805-5.648,6.4771-1.2372,.5569-2.4938,1.0924-3.6641,1.7712-1.8883,1.0953-2.3278,2.295-1.7686,4.4323,.1817,.6943,.3681,1.4,.665,2.049,1.1577,2.5312,1.0894,5.0934,.4273,7.7357-.6448,2.5732-2.0838,4.2446-4.7422,4.8062-.8487,.1792-1.6638,.5178-2.4943,.7834h-2.8794c-3.1903-1.4463-5.7385-3.665-7.8198-6.4586-1.0695-1.4355-2.4108-1.5949-4.0427-.9517-1.7769,.7004-3.6002,1.3157-5.4483,1.794-2.1089,.5457-3.9901-.0356-5.3674-1.7679-1.3629-1.7142-1.0936-3.5981-.2572-5.4351,.3952-.8681,.912-1.6871,1.4312-2.4914,3.1451-4.8718,3.1031-9.4864-.1646-14.3009-.4936-.7272-.982-1.4657-1.5491-2.1341-2.4197-2.8525-4.1673-6.0624-5.0317-9.6993-.6259-2.6331-2.1882-4.1486-4.8086-4.7129-3.5956-.7745-6.4021-2.8554-8.7119-5.6079-2.466-2.9386-5.4153-5.1159-8.9474-6.6512-3.9053-1.6975-4.8302-3.8351-4.1218-8.0717,.5334-3.1896,1.9981-5.9262,4.0717-8.2881,3.6854-4.1981,7.5258-8.2601,11.5805-12.6834,.0454-2.514-.6003-5.3614-2.0599-8.0016-1.0747-1.9438-1.5259-2.1228-3.6505-1.6826-.8606,.1782-1.7178,.3728-2.5747,.5682-3.2341,.7376-6.3526,.5388-9.2927-1.1332-.1385-.0788-.2951-.1267-.431-.2092-3.401-2.0659-6.6917-2.4904-10.5616-.6878-4.3446,2.0239-9.0458,1.6744-13.5689-.0074-4.3002-1.5989-8.2605-3.8619-11.9487-6.5431-1.5899-1.1559-2.8983-2.739-4.1903-4.2512-.9802-1.1473-1.833-2.4335-2.5688-3.7545-4.4695-8.0249-10.9107-14.343-17.6076-20.4402-1.0615-.9665-2.2455-1.798-3.365-2.7015-3.027-2.4431-6.4513-3.7581-10.3715-3.7998-1.0263-.0109-2.0646-.2286-3.0718-.4621-3.8011-.8813-6.1964-3.2628-6.993-7.0594-1.0572-5.0385-1.4789-10.1117-.3785-15.2275,1.7976-8.3566,3.6192-16.7094,5.2767-25.0943,1.1634-5.8855,2.0183-11.8376,1.6568-17.8634-.1329-2.2146-.4669-4.4722-1.1073-6.5899-1.3496-4.4638-4.6341-6.5828-9.2957-6.2572-2.6486,.185-5.2246,.7141-7.5848,2.0224-.4889,.271-1.0069,.4893-1.4967,.7587-3.114,1.7127-6.3399,3.0248-9.9794,3.0493-1.0332,.007-2.0753,.1663-3.0955,.3533-3.7283,.6838-5.2391,3.2481-4.0638,6.8606,.2718,.8353,.5963,1.6541,.9126,2.4742,1.2842,3.3298,.6898,6.3748-1.7758,8.8546-1.7321,1.742-3.734,3.2462-5.7475,4.6699-2.281,1.6128-4.7084,3.0187-7.0742,4.5116-2.7751,1.7512-4.8637,4.1131-6.3375,7.0403-.7185,1.427-1.4996,2.8224-2.2428,4.2372-2.4869,4.7344-6.4312,7.4082-11.6657,8.2621-2.0505,.3345-4.0944,.7185-6.1531,.9909-6.0424,.7994-9.1357,4.7693-10.9207,10.1217-.5385,1.6148-.088,2.9996,1.4052,3.9501,.8761,.5577,1.7204,1.18,2.6422,1.6492,7.5148,3.8251,13.4794,13.8359,11.8695,25.0791-.5288,3.693-2.0213,6.8569-4.4538,9.6402-2.5779,2.9497-5.1605,5.897-7.6657,8.9081-2.9411,3.535-6.5029,6.2903-10.8999,7.515-4.5794,1.2755-6.1503,4.3615-6.4825,8.6307-.2791,3.5858-.4513,7.1952-1.0183,10.7385-.4758,2.9731-1.1934,5.965-2.2659,8.7722-1.8352,4.8035-5.5344,7.588-10.66,8.1422-4.2064,.4549-8.4421,.6733-12.6704,.8808-3.3821,.1661-6.3676,1.3967-9.2372,3.0441-1.6906,.9706-2.7003,2.4005-3.1241,4.3234-.4377,1.9854-.54,3.9333-.1039,5.9358,.3563,1.636,.6594,3.299,.7916,4.9654,.3134,3.9502-2.0395,6.8006-5.9754,7.2453-1.3401,.1514-2.7142,.0735-4.0688,.0122-3.5884-.1624-7.1746-.3736-10.7617-.5637-.3194-.0169-.6395-.0195-.9591-.0339-3.2815-.148-5.9044-1.3431-7.2276-4.6486-2.1986-.3531-4.3413-.0343-6.342,.7446-4.4129,1.7182-8.0156,.2107-11.1797-2.7217-1.5666-1.4519-2.7927-3.2752-4.1456-4.9525-1.554-1.9267-3.0199-3.9274-4.6315-5.8037-1.5333-1.7853-3.4748-2.4493-5.822-1.7105-1.2927,.4069-2.6345,.6551-3.94,1.0251-3.1515,.8931-6.1817,.5546-9.0829-.9022-2.1399-1.0745-4.2405-2.2272-6.5915-3.4681-1.1196,1.3403-2.2969,2.7225-3.4443,4.1291-2.2777,2.792-5.1706,4.1951-8.8058,3.9826-.7179-.0421-1.4439,.0194-2.1577-.0517-2.4259-.2416-4.1685,.7757-5.384,2.8232-.1631,.2747-.3756,.5226-.5185,.8064-2.4544,4.8751-6.595,7.6852-11.5799,9.4571-3.0097,1.0699-6.0088,2.1739-9.0434,3.1687-4.4509,1.4592-8.8204,1.1353-13.0711-.8257-.9429-.435-1.8709-.9077-2.8336-1.2935-3.1889-1.2778-5.8926-.6489-8.2463,1.919-.7013,.7651-1.3401,1.5884-1.9918,2.3978-1.6493,2.0485-3.6892,3.5733-6.2224,4.2872-6.4509,1.8179-12.8783,3.756-19.4061,5.2485-3.2294,.7384-6.6562,.7472-9.9995,.8203-4.1838,.0916-7.8154-1.4994-10.8229-4.3956-1.4946-1.4394-2.8863-2.9895-4.2759-4.5332-2.3521-2.613-4.77-5.1775-6.9584-7.9233-1.4266-1.7901-2.7962-3.7414-3.6578-5.8395-1.4184-3.4544-3.1405-6.6315-5.7974-9.2733-2.8624-2.8461-4.2229-6.3474-4.4496-10.3263-.1743-3.0605-1.3055-5.7129-3.1974-8.1116-2.7208-3.4498-5.3792-6.9494-8.0274-10.4556-.674-.8924-1.456-1.5048-2.592-1.4601-2.1433,.0845-4.2893,.168-6.4249,.3572-1.9827,.1757-3.9487,.6453-5.9301,.702-2.5689,.0735-3.1336-.546-3.1945-3.059-.0465-1.9168,.1293-3.8414,.035-5.754-.1017-2.062-.3048-4.1306-.6447-6.1661-.3341-2.0009,.0564-2.7658,2.0717-3.2545,.1546-.0375,.319-.0341,.4744-.0696,3.2158-.7339,3.7946-2.3124,1.7874-4.8995-1.3293-1.7134-3.0886-2.7962-5.1928-3.2098-2.1142-.4155-4.2824-.5676-6.3851-1.0268-2.247-.4907-4.5459-.9723-6.6407-1.8776-3.076-1.3294-4.7226-3.8947-5.2027-7.2487-.66-4.6108,.0981-9.1053,1.1541-13.5366,.7754-3.2537,1.8782-6.4381,2.9783-9.6036,1.2217-3.5155,3.1323-6.6722,5.7825-9.2928,2.6829-2.6529,3.173-5.6408,2.2674-9.2181-1.7328-6.8452-4.6039-13.0897-8.9762-18.6443-1.1854-1.506-2.4062-3.0047-3.4062-4.6324-3.1231-5.0833-2.4967-10.4136,1.622-14.7072,.9408-.9807,1.9491-1.8991,2.8569-2.9085,1.4561-1.6192,1.9754-3.5448,1.0938-5.5556-.6624-1.5109-1.5132-3.0147-2.5935-4.247-1.2513-1.4274-2.7329-2.7217-4.31-3.7833-8.0825-5.4404-16.942-9.0273-26.6533-10.0116-4.7512-.4816-9.5871-.2597-14.3805-.1593-6.3925,.1339-12.7938,.3338-19.0797,1.7034-1.4027,.3057-2.7953,.6767-4.168,1.098-3.3034,1.0139-6.0557,2.8517-8.1452,5.6311-.8164,1.086-1.6918,2.1368-2.4122,3.2841-2.9776,4.7423-7.4371,6.7741-12.8306,7.2791-4.0546,.3796-8.1203,.7573-12.135,1.4163-4.7964,.7872-8.8619,3.1275-12.1823,6.6852-1.3077,1.4012-2.5587,2.863-3.7433,4.3697-2.668,3.3935-5.3068,6.8111-7.8967,10.2644-.8926,1.19-1.6051,2.5151-2.5661,4.0427,1.0857,.6107,1.8464,1.1474,2.6873,1.4827,.959,.3825,1.9839,.6083,2.9908,.8599,.9337,.2332,1.6074,.702,1.7649,1.7095,.1515,.9693-.1896,1.7337-1.0318,2.2397-1.4508,.8716-2.4719,2.098-2.6805,3.7807-.2047,1.651-.1839,3.3299-.2761,5.2966,1.0198,.066,1.8566,.1381,2.695,.1707,1.9166,.0748,3.8417,.0455,5.7484,.2213,1.4384,.1327,2.0281,.7518,2.0835,2.1679,.2149,5.4984-1.0948,10.3398-6.182,13.3976-1.574,.9461-3.1516,1.9098-4.8123,2.6836-4.6278,2.1561-8.2537,5.3959-11.0376,9.6577-1.1785,1.8041-2.5189,3.5041-3.8163,5.2285-3.5476,4.7153-8.3173,7.4223-14.1043,8.2558-3.3155,.4775-6.667,.7774-10.013,.9529-4.7088,.2469-9.4268,.3695-14.1422,.4166-2.6277,.0262-5.2607-.1695-7.8855-.35-.7799-.0537-1.5742-.3139-2.3033-.6194-3.498-1.4654-4.8885-5.0454-3.3478-8.5054,1.207-2.7107,1.0084-3.6322-1.1138-5.6332-1.7285-1.6297-3.4212-3.2974-5.1298-4.9482,0-.9597,0-1.9193,0-2.879,.2934-.256,.6982-.4547,.8636-.7764,3.4533-6.7166,9.2756-9.6399,16.4926-10.2791,4.0603-.3597,8.1376-.5358,12.1939-.9313,1.9777-.1927,3.957-.5812,5.8741-1.1057,1.1789-.3226,2.2416-1.0695,3.5556-1.7253-.8649-1.3484-1.4746-2.459-2.2346-3.4546-2.5701-3.3667-2.6668-6.8887-.8097-10.5775,2.299-4.5667,4.6068-9.1289,6.8897-13.7036,.7485-1.5001,1.5116-3.0012,2.1265-4.5578,1.2073-3.056,.9446-6.0665-1.1435-8.6053-1.8142-2.2058-3.9065-4.2013-6.0103-6.1443-1.5211-1.4051-3.3212-2.5037-4.8925-3.8599-2.8638-2.4718-4.9682-5.3227-5.0378-9.3969-.035-2.0483-.759-4.0754-1.0266-6.131-.7077-5.437,.4009-10.5586,3.3304-15.1508,2.5324-3.9698,5.3565-7.7573,8.1462-11.5559,.4729-.644,1.3846-1.0237,2.1616-1.3754,2.0352-.921,4.1438-1.6853,6.152-2.6586,1.1376-.5514,2.206-1.3069,3.1793-2.1213,1.3937-1.1661,1.6918-2.4892,.764-4.0513-.7648-1.2877-1.7934-2.4388-2.8158-3.5484-1.2984-1.4092-2.7767-2.6546-4.0526-4.0821-1.4066-1.5737-1.3608-2.3238,.0121-3.9732,2.168-2.6047,4.7459-4.7524,7.6124-6.5384,2.3056-1.4365,4.626-2.8612,7.0199-4.1416,5.8106-3.108,10.6912-7.2518,14.5943-12.571,1.2752-1.7378,2.6816-3.3839,4.0906-5.018,2.9148-3.3806,6.3838-6.049,10.5227-7.76,7.504-3.102,14.0263-7.5862,19.5988-13.5022,1.2473-1.3242,2.8075-2.3581,4.2473-3.4957,2.6327-2.0801,5.3323-4.079,7.9015-6.2339,1.0229-.8578,1.8909-1.9641,2.6206-3.0924,1.0743-1.6611,.772-2.7184-.8992-3.8279-.5949-.3949-1.2795-.6518-1.9034-1.0065-1.3657-.7764-1.7373-1.4101-1.2766-2.9545,.5222-1.7506,1.1746-3.4824,1.9698-5.1258,.7978-1.649,1.7816-3.2182,2.7881-4.7541,3.1764-4.8467,3.8662-10.0791,2.4625-15.6206-.6862-2.7089-1.5528-5.3717-2.2831-8.0701-.4165-1.5387-.7617-3.0995-1.07-4.664-.479-2.4303-.1978-4.8486,.8624-7.0348,2.799-5.7717,6.9889-10.0837,13.3458-11.9099,.8435-.2423,1.703-.447,2.568-.5933,4.696-.7938,9.1009-2.3674,13.2457-4.725,3.006-1.7098,6.2195-2.8828,9.6515-3.465,3.341-.5668,6.0421-2.1767,8.3751-4.7243,2.6905-2.9379,5.6108-5.6984,8.6583-8.2666,2.6839-2.2618,4.5739-4.879,5.3251-8.295,1.0289-4.6785,3.3452-8.5928,6.8423-11.8539,1.7555-1.6371,3.275-3.4458,4.4441-5.6045,.6942-1.2818,1.8584-2.4422,3.0725-3.2776,1.6954-1.1665,3.5531-2.2088,5.4866-2.8954,4.3472-1.5438,7.5881-4.3732,10.1205-8.0917,1.4829-2.1775,2.8978-4.4152,4.1617-6.7252,2.923-5.3426,6.7149-9.9063,11.5793-13.5861,3.9668-3.0007,7.5117-6.4419,10.7994-10.1828,2.3423-2.6652,3.4547-5.4872,2.4236-9.0134-.3565-1.2193-.5607-2.5029-.6692-3.7712-.3167-3.7014,1.488-6.1583,5.1438-6.9086,1.4754-.3028,3.0107-.4004,4.5215-.4251,2.6447-.0433,4.9148-.9852,6.5669-2.9727,2.5011-3.0088,5.5809-5.2287,8.8715-7.2407,1.0163-.6214,1.9697-1.3713,2.8619-2.1636,1.1214-.9958,1.4471-2.2384,.8599-3.6905-.8245-2.0393-2.0298-3.8108-3.6798-5.2543-1.06-.9273-2.3386-1.4549-3.7593-1.2483-1.4138,.2056-2.8572,.4297-4.193,.9092-5.0515,1.8133-10.2715,2.3474-15.5801,2.1884-4.0752-.122-8.1476-.3605-12.2184-.5956-2.3766-.1372-3.0459-1.0141-2.784-3.4155,.3203-2.9366,1.6844-5.3208,3.9361-7.1697,1.2938-1.0624,2.7146-1.9705,4.0808-2.9443,1.041-.742,2.1205-1.4347,3.1217-2.2266,1.7987-1.4226,2.8837-3.245,2.5773-5.6121-.2203-1.7018,.4509-2.7886,1.9657-3.4064,2.0604-.8404,4.1392-1.6357,6.3876-2.5202,.3862-2.2919,1.8753-3.6398,4.3913-4.1241,1.7611-.3389,2.8813-2.518,2.5063-4.2844-.5306-2.4989-1.2399-4.9789-1.519-7.5061-.215-1.9472-.1377-4.0075,.2643-5.9221,.5413-2.5782,2.567-4.1035,5.2205-4.125,3.5595-.0289,6.8661,.8695,9.162,3.8354,1.5281,1.9738,3.3584,2.274,5.5243,1.4829,1.4238-.5201,2.824-1.1101,4.2149-1.7144,3.6209-1.573,7.1475-1.4003,10.5972,.5038,1.3291,.7336,2.6681,1.4504,3.9836,2.2077,1.6153,.9299,3.2731,1.0867,5.0809,.5996,1.3798-.3718,2.8151-.6699,4.2369-.7278,3.7448-.1524,6.1293,2.995,4.8922,6.5476-.4866,1.3975-1.4318,2.6552-2.2781,3.902-.806,1.1873-1.855,2.2142-2.62,3.4237-1.4469,2.2876-.5508,4.0317,2.0725,3.8627,3.6656-.2361,6.1486,1.4574,7.6106,5.2898,.5597,1.4671,.9702,2.9911,1.493,4.6278,.4067-.2424,.6968-.365,.926-.5594,5.1466-4.3666,11.2289-6.3443,17.8404-6.7585,2.2115-.1386,4.4696,.1756,6.6851,.4529,5.2486,.6571,9.9819-.5732,14.3031-3.5791,2.2805-1.5864,4.6027-3.1129,7.1701-4.8444-.4359-.5662-.8346-1.2193-1.3621-1.7427-1.3382-1.3277-1.6884-2.8401-1.0692-4.6046,.1851-.5276,.3121-1.0764,.5101-1.5987,1.1918-3.1445,3.1599-3.776,5.6254-1.5363,1.8146,1.6484,3.6134,1.3431,5.5592,.666,1.1707-.4074,1.7363-1.374,2.0069-2.5118,.2216-.932,.3938-1.8786,.5333-2.8267,.5393-3.6655,2.494-5.9664,6.2464-6.58,.4652-.0761,.9178-.2298,1.4839-.3753-.52-1.4172-1.7003-1.947-2.7912-2.5567-2.1992-1.2292-2.4437-2.0668-1.1645-4.1837,1.0583-1.7514,2.5085-3.1266,4.2836-4.1049,1.4652-.8074,2.9738-1.5772,4.5415-2.1494,3.9456-1.4401,7.4511-3.6044,10.8722-6.0046,3.2001-2.2451,6.5721-4.2482,9.9022-6.3032,.8762-.5407,1.8445-.9835,2.8269-1.2907,2.764-.8641,4.9301,.126,6.0694,2.7868,1.097,2.562,1.3696,5.2769,.8945,8.0001-.4173,2.3918-1.9619,3.9768-4.227,4.812-.9717,.3583-2.0035,.5533-2.9767,.9083-.7852,.2864-1.5234,.7016-2.2824,1.0596l-.0241,.5569c1.0671,.4567,2.0949,1.1211,3.2086,1.3317,3.6042,.6816,7.2235,1.501,10.8678,1.6989,4.6114,.2504,9.2541-.0213,13.8813-.1436,1.6318-.0431,2.7211-.8801,3.5265-2.4275,.6755-1.298,1.7463-2.5089,2.912-3.409,2.5272-1.9515,5.1357-3.8326,7.8754-5.4668,5.6283-3.3572,11.7377-4.5176,18.2127-3.2666,3.5419,.6843,6.0392,2.7805,7.5426,6.0577,.3665,.7989,.7455,1.5928,1.0878,2.402,1.0161,2.4025,2.8938,3.4924,5.4258,3.6784,2.4234,.1781,4.7955-.0455,7.1043-.7939,4.8617-1.5759,9.7142-3.1467,14.7477-4.1488,3.2379-.6447,6.1127-2.3122,8.9053-4.0495,3.7356-2.3239,7.4933-4.5848,11.7402-5.912,2.3933-.748,4.164-2.3126,5.2867-4.5861,.3534-.7157,.7515-1.4122,1.1694-2.0928,1.7762-2.8931,4.3836-4.5651,7.763-4.3049,3.5663,.2746,7.1152,.9148,10.6361,1.5831,1.95,.3701,3.8267,1.1256,5.737,1.7054,4.5353,1.3765,8.422,3.7996,11.728,7.1903,1.4508,1.488,2.9339,2.9484,4.4642,4.354,3.6748,3.3756,7.9287,4.4186,12.6504,2.7051,3.872-1.4051,7.7505-1.694,11.7866-.9624,3.0887,.5598,6.2095,.6083,9.2631-.3229,.7287-.2222,1.4166-.5787,2.2411-.9225-1.2646-1.8482-2.9849-2.5356-4.6311-3.3018-1.086-.5055-2.383-.798-2.522-2.2532-.1467-1.5364,1.0279-2.351,2.1499-2.8964,2.29-1.1131,4.6469-2.1129,7.0422-2.9767,1.7646-.6363,3.3811-1.2745,4.439-2.993,.8713-1.4153,2.407-1.846,3.9892-1.7446,4.5012,.2885,7.9632,2.1769,9.7325,6.5615,.7089,1.7567,1.4667,3.4937,2.2391,5.3273,.5021-.3239,.772-.489,1.0328-.6676,2.7893-1.9108,4.0354-4.3329,2.9839-7.7975-.4791-1.5786-.5774-3.3103-.6096-4.9771-.036-1.8723,.8495-2.5587,2.7164-2.4529,.7147,.0405,1.4326,.133,2.1435,.0957,.5436-.0285,1.0785-.2239,1.6008-.3413-.004-2.1793-1.0829-3.7421-3.1719-4.5308-2.2445-.8474-4.6039-.8226-6.8621-.2995-3.7281,.8635-7.3893,2.0125-11.0873,3.0098-3.465,.9344-6.9252,1.8952-10.4178,2.7157-2.3123,.5432-4.4504-.009-6.2334-1.6513-3.6447-3.3572-7.2801-6.7247-10.9207-10.0865-2.0768-1.9178-2.5158-4.3783-2.2554-7.0271,.2883-2.9318,1.3723-5.6224,3.1086-7.9534,2.3364-3.1366,4.8513-6.1426,7.3477-9.1567,1.4345-1.732,2.7748-3.3617,2.865-5.856,.073-2.0198,1.5857-3.4351,3.365-4.3726,.6266-.3302,1.3384-.5619,2.0381-.68,4.0454-.6828,7.8409-2.1513,11.6618-3.5658,1.8646-.6903,3.7989-1.1927,5.8799-1.8351,.1483-1.0434,.516-2.1577,.4108-3.2254-.1687-1.7133,.4499-2.7506,2-3.3323h3.8392c2.9293,.742,5.8767,1.4202,8.7827,2.244,2.8611,.8111,2.9758,1.0537,3.0856,3.9898,.0232,.6205,.0813,1.2397,.1623,2.4377,.528-.906,.7604-1.3657,1.0478-1.7878,1.7294-2.5398,4.2921-3.2069,7.1437-3.0026,2.6723,.1915,4.3889,1.7695,5.3299,4.1995,.5423,1.4004,.9648,2.8472,1.4819,4.3951,.9422-.1472,1.788-.3153,2.6421-.4068,3.8887-.4163,6.4253,1.5454,6.6322,5.4452,.1042,1.9646-.2603,3.9755-.5873,5.9364-.4857,2.9123-1.1274,5.7986-1.7005,8.6964-.3987,2.0161,.3024,3.5313,1.9208,4.8038,2.6575,2.0894,5.4123,3.9824,8.6598,5.0197,1.1238,.3589,2.4245,.8563,3.3843-.1642,1.0386-1.1044,.4831-2.4202-.075-3.586-.8477-1.7708-2.0878-3.1792-3.8817-4.0962-1.8116-.9261-2.0066-1.5247-1.3768-3.4592,1.2932-3.9718,4.5503-5.7601,8.7008-4.4966,1.9612,.5971,3.8089,1.6216,5.6344,2.5911,1.3351,.7091,2.5969,1.5823,3.8061,2.4954,1.3885,1.0486,2.7811,1.7345,4.6256,1.4874,.8895-.1192,1.9346,.1525,2.7701,.5441,2.5676,1.2033,3.2258,3.8088,1.3487,5.9151-1.0259,1.1512-1.0398,2.2178-.7715,3.5025,1.549,7.4178,8.6376,12.2357,16.1857,10.7711,2.8017-.5436,5.5287-1.5454,8.2341-2.4966,5.2824-1.8571,10.5493-3.7432,16.1935-4.165,1.6721-.1249,3.3525-.1333,5.0273-.2275,4.3046-.2421,8.6072-.5228,12.9127-.7477,2.552-.1333,5.1087-.278,7.6621-.2588,3.1872,.024,5.6659,1.4718,7.4196,4.1409,.1756,.2672,.3647,.5277,.5163,.8081,3.7125,6.8641,10.3277,9.6195,17.1345,12.1002,.2964,.108,.6247,.1835,.9378,.182,3.5809-.0167,6.2027,1.838,8.4647,4.3556,1.4955,1.6645,2.9486,3.3681,4.3878,5.0817,.8965,1.0675,1.8912,1.5856,3.3521,1.2237,2.3562-.5836,4.5128,.0864,6.1925,1.7392,1.7506,1.7226,3.4033,3.5833,4.8473,5.5667,1.214,1.6674,2.0743,3.5936,3.0782,5.4124,2.0164,3.6533,4.7552,6.6486,8.3945,8.688,5.1834,2.9048,10.1241,6.0916,14.2808,10.4102,1.6855,1.7511,3.8502,2.1274,6.2096,1.4638,1.7667-.497,3.5465-.9639,5.3426-1.3371,3.7561-.7806,7.1544,.0834,10.1013,2.5194,1.6001,1.3228,3.1093,2.759,4.6184,4.1875,1.5373,1.4551,3.2932,2.4865,5.2973,3.178,1.5042,.519,3.0188,1.0935,4.3959,1.8769,2.6992,1.5356,4.2133,3.8536,4.0511,7.0789-.0562,1.1178-.0321,2.2452-.1725,3.3521-.3474,2.7407,.218,5.1936,1.8354,7.4775,1.5652,2.2102,2.2625,4.7076,2.0756,7.4702-.2834,4.1859-2.24,7.1008-6.2274,8.5089-1.7291,.6106-3.5169,1.0573-5.2841,1.5571-2.8464,.805-5.267,2.2767-7.1879,4.54-.6723,.7921-1.3846,1.5581-1.9849,2.4026-6.5785,9.2533-13.0578,18.5651-18.17,28.7522-1.8124,3.6118-3.2217,7.3061-3.5956,11.3473-.5525,5.972-1.3774,11.899-2.8046,17.733-.5943,2.4294-.149,4.7575,.7596,7.0337,.9475,2.3736,1.8775,4.7542,2.8179,7.1306,1.4206,3.5899,1.3107,7.1795,.0165,10.7746-.5951,1.653-1.202,3.3028-1.7475,4.9723-.5051,1.5461-.5439,3.1138-.0037,5.0239,1.3022-.237,2.5235-.4491,3.7408-.6829,3.1403-.6031,6.2655-1.2203,9.5067-.81,2.7989,.3543,5.2501,1.3039,7.1815,3.434,.4182,.4613,.9533,.8167,1.6019,1.3614,.9598-2.7458,2.8771-3.0127,5.218-2.3244,5.9051,1.7363,12.0226,1.5828,18.0751,1.9103,8.4367,.4565,16.6426,1.7117,24.4657,5.1934,3.178,1.4144,6.7131,2.0215,10.0772,3.0244,2.6752,.7975,5.4079,1.4622,7.992,2.494,6.9125,2.7601,10.7912,8.2659,12.9951,15.098,.8427,2.6125,.0377,4.0524-2.5682,5.0502-1.6198,.6202-2.9744,1.5105-3.9898,2.9259-1.543,2.151-1.445,3.4561,.4758,5.2183,.5285,.4848,1.1096,.9167,1.6921,1.3375,3.2381,2.3397,6.5353,4.6013,9.7117,7.0215,2.6877,2.0478,5.4593,2.8415,8.7102,1.4942,3.6621-1.5178,7.2868-1.0118,10.6274,.8431,2.71,1.5046,5.3449,3.2301,7.744,5.1874,3.1536,2.573,6.0349,5.4786,9.0502,8.2226,1.4182,1.2907,2.8477,2.5717,4.3217,3.7976,2.7133,2.2567,5.8889,2.9021,9.2469,2.1308,6.5743-1.51,12.507-4.3657,17.4674-9.0243,3.0456-2.8603,5.0094-6.2053,4.4725-10.6089-.0955-.7837-.0155-1.6,.0682-2.3924,.4218-3.9922,3.6861-7.5695,8.7706-6.6519,.549,.0991,1.0986,.2142,1.6326,.3736,3.4829,1.0392,6.4195-.114,8.6106-2.704,1.6233-1.919,2.8555-4.2213,3.986-6.4904,1.2437-2.4961,2.0693-5.1984,3.2727-7.7174,.8192-1.7147,1.8068-3.4079,3.0153-4.8652,2.3817-2.8721,5.5232-3.8893,9.2391-3.2384,3.9671,.6949,7.2002,2.5551,9.6136,5.7784,1.389,1.8551,2.6823,3.7816,4.0649,5.6417,1.4903,2.0049,3.2029,3.494,6.0269,3.1229,1.5332-.2015,2.3477,.5559,2.4284,2.2926,.122,2.6211,.1664,5.287-.1733,7.8793-.6128,4.6758-1.4869,9.3095-1.0755,14.0647,.2136,2.467,.3332,4.9446,.4135,7.4201,.1579,4.8734-.8486,9.532-2.7731,13.9956-1.1386,2.6407-2.3162,5.2649-3.498,7.8866-.7849,1.7411-.9378,3.4567-.4192,5.3532,.6083,2.2253,1.035,4.5223,1.2932,6.816,.4049,3.5952-.5942,5.2279-3.8423,6.8957-2.4401,1.2529-3.2817,3.1093-2.5145,5.7525,.4003,1.3793,.9792,2.7062,1.3919,4.0824,1.3028,4.3441-.0582,7.9123-3.8877,10.3185-2.5847,1.6241-3.0961,2.7052-2.388,5.7679,.7245,3.1346,2.1458,5.9848,3.8209,8.6718,1.9998-.2498,3.8827-.6372,5.7756-.6947,7.6578-.2328,13.5099,5.0003,14.2682,12.6155,.0771,.7737,.3109,1.5318,.4719,2.2972v4.7983Zm-99.0279,125.3197c1.5874,1.0916,3.2928,1.0612,4.9332,.8546,4.9764-.6267,9.5934-2.3856,13.9562-4.8123,1.4567-.8102,2.3936-2.1146,2.8121-3.7356,.7714-2.9885,.6718-6.0216,.3685-9.0563-.1481-1.483-1.0404-2.2171-2.4733-2.4971-1.3293-.2597-2.6623-.5696-3.9404-1.0113-7.1101-2.4567-11.7695-8.9781-11.7969-16.4188-.0049-1.3255,.0574-2.6309,1.5665-3.1733,1.6794-.6037,2.2098-1.9419,2.4255-3.5323,.0964-.7121,.2743-1.4134,.3627-2.1262,.417-3.365,2.2574-5.7532,5.1337-7.3824,1.5273-.865,3.1589-1.5458,4.6862-2.411,1.2175-.6898,2.3483-1.5329,3.7905-2.4888-2.5548-2.7423-4.8317-5.1965-7.1205-7.6394-1.3339-1.4235-2.9862-1.7889-4.8286-1.3176-1.3916,.356-2.7538,.8279-4.1459,1.1819-1.6225,.4126-3.2469,.8813-4.9004,1.0923-2.0392,.2602-2.6077-.2213-3.526-2.0884-.9864-2.0057-2.0393-3.9794-3.092-5.9517-1.091-2.0438-2.3532-4.0077-3.3011-6.1143-2.8244-6.2764-3.0735-12.5148,.7257-18.5486,.942-1.4959,1.3223-3.036,.964-4.7929-.6092-2.9883,.1289-5.7046,1.8473-8.1795,1.4588-2.101,2.8722-4.2373,4.4136-6.2765,2.253-2.9806,3.9414-6.2145,4.6473-9.8942,.8445-4.4026,3.485-7.2132,7.5013-8.9655,3.8375-1.6742,7.8503-2.7058,11.9435-3.4558,2.8587-.5238,5.7569-1.6578,8.4076,.3652,2.4968-2.4144,6.0753-3.1016,8.3656-1.3778,2.7595,2.077,4.825,4.7432,4.6246,8.4745-.0894,1.6649-.4712,3.3145-.7273,4.97-.1695,1.0955-.4669,2.2011,.3452,3.2807,6.0029,.4714,11.2622,2.7691,15.6733,6.8938,1.9428,1.8166,3.7198,2.2791,6.0974,.5697,2.1368-1.5363,4.6322-1.5947,7.0332-.222,.4765,.2724,1.0165,.4754,1.553,.5939,3.3533,.7411,6.7088,1.4745,10.0736,2.1612,3.5916,.733,5.5924-.0375,7.4517-3.2607,3.3811-5.8615,3.9867-12.1074,1.7319-18.4807-1.5464-4.3708-4.9135-6.4238-9.5222-6.0333-1.8113,.1535-3.6025,.664-5.3741,1.1233-1.2149,.315-2.2599,.2634-2.9361-.8863-2.3137-3.9342-4.623-7.9058-5.3304-12.4943-.6521-4.2293,.4751-7.3855,4.0872-9.0922,.2157-.1019,.4225-.2287,.6192-.3646,1.8629-1.2868,2.4675-2.7664,1.8974-4.9576-.3209-1.2334-.7997-2.4255-1.2066-3.6366-1.7795-5.2971-.3584-9.0756,4.5377-11.6114,1.133-.5868,1.5523-1.3055,1.3928-2.4434-.2435-1.7374-.3381-3.5359-.8778-5.1834-1.2802-3.908-.7776-7.5503,1.0849-11.1105,.4071-.7783,.7136-1.6094,1.1255-2.3849,3.4853-6.5639,4.6947-13.5674,3.8471-20.902-.6506-5.6313-.1616-11.1584,.8711-16.6929,.3441-1.8447,.695-3.7548,.1899-5.7736-3.8863-.4232-6.2967-2.9117-8.373-5.8716-1.1017-1.5706-2.1916-3.1512-3.3473-4.6816-1.6001-2.1186-3.7118-3.4408-6.3182-4.0583-2.7315-.6473-4.9399,.0591-6.4909,2.378-.9267,1.3854-1.7164,2.8837-2.3979,4.4072-1.1741,2.624-2.1543,5.3348-3.3303,7.9579-1.1842,2.6413-2.6916,5.1013-4.9004,7.0349-3.3919,2.9692-7.222,4.3436-11.7394,3.0834-.5374-.1499-1.0931-.2485-1.6468-.3239-2.0153-.2745-3.4518,.7544-3.7003,2.7899-.1445,1.1828-.1113,2.3979-.0499,3.5929,.145,2.8299-.6021,5.448-2.2114,7.6988-1.4294,1.9993-3.0344,3.9404-4.8588,5.5761-4.1625,3.7318-9.143,6.0717-14.3739,7.9719-7.267,2.6398-13.6298,1.4888-19.1713-4.0207-2.6078-2.5927-5.2413-5.1799-8.0581-7.5365-2.8702-2.4011-5.8989-4.6372-9.0096-6.7192-2.6626-1.7822-5.6458-2.1116-8.708-.8888-3.9027,1.5584-7.5177,.9372-10.8838-1.4775-3.9609-2.8415-7.9852-5.5999-11.8632-8.5503-4.9759-3.7856-5.302-8.3286-.9997-12.8782,.9148-.9673,2.1246-1.6628,3.2286-2.4407,.4398-.3099,.9613-.504,1.588-.8232-1.8379-5.2551-4.5946-9.6149-9.8066-11.8649-2.3333-1.0073-4.7965-1.771-7.2634-2.3992-4.9592-1.2629-9.8808-2.5702-14.591-4.6475-2.173-.9583-4.5363-1.5404-6.8616-2.0878-6.0267-1.4188-12.2004-1.5483-18.3455-1.8662-4.1523-.2149-8.3093-.3229-12.3496-1.472-.4346-.1236-.9158-.0831-1.3018-.1131-1.9698,2.8091-3.7684,3.2293-6.5541,1.5264-.8079-.4939-1.5547-1.1359-2.2067-1.8261-1.1508-1.218-2.4996-2.0204-4.1618-2.145-1.5028-.1126-3.0402-.2539-4.5212-.0628-2.9288,.3779-5.8221,1.0221-8.7435,1.4688-2.2135,.3385-2.8486-.078-3.73-2.0854-1.2533-2.8539-1.2047-5.7576-.2703-8.6672,.5615-1.7487,1.2243-3.465,1.849-5.1931,.875-2.421,.9634-4.8328-.0018-7.2588-.7381-1.8552-1.2904-3.7981-2.1725-5.5796-2.249-4.5419-2.2862-9.175-1.2107-14.0209,.8282-3.7319,1.4175-7.5334,1.8417-11.3343,.6166-5.5262,1.7853-10.814,4.3512-15.8367,5.3679-10.5075,11.9784-20.2041,18.8421-29.7502,.6979-.9705,1.5184-1.8562,2.3152-2.7516,2.2889-2.5723,5.0892-4.3468,8.3991-5.3103,1.5336-.4464,3.0568-.9337,4.6025-1.3336,3.7141-.9608,4.8731-3.2387,4.1063-7.6163-.1453-.8294-.6332-1.6562-1.1412-2.3547-2.3996-3.2996-2.9611-6.9586-2.5018-10.9303,.5022-4.3419-.1484-5.2719-4.1941-6.7898-.4485-.1683-.8998-.3309-1.3564-.4753-2.6446-.836-4.9054-2.2906-6.9012-4.2001-1.2707-1.2157-2.5878-2.383-3.8856-3.5705-2.1935-2.0069-4.7766-2.4732-7.5954-1.8405-1.4794,.3321-2.9347,.7739-4.3961,1.1829-3.9663,1.1099-7.5281,.2774-10.3959-2.6146-3.8188-3.8513-8.223-6.8086-12.9341-9.421-4.5089-2.5004-7.9703-6.1092-10.4268-10.6612-.7971-1.4771-1.5202-3.0066-2.45-4.3965-1.0595-1.584-2.2255-3.1176-3.5066-4.5266-1.1689-1.2856-2.6261-1.9314-4.5126-1.4836-2.2996,.5459-4.2465-.2756-5.7923-2.0488-1.0506-1.2051-2.0765-2.4329-3.1579-3.6096-1.1347-1.2346-2.2386-2.5207-3.5188-3.5893-.7512-.627-1.7886-1.129-2.7513-1.2468-3.7993-.4647-7.3108-1.6332-10.5378-3.6944-1.6837-1.0754-3.3899-2.1184-5.1184-3.1201-2.7049-1.5675-4.8958-3.6562-6.1764-6.5093-1.5501-3.4537-4.2215-4.5627-7.7688-4.176-.397,.0433-.799,.0371-1.1974,.0699-6.7694,.5574-13.5252,1.3483-20.3393,1.12-.7121-.0239-1.4308,.1278-2.1453,.2078-5.2969,.5934-10.2007,2.5664-15.1948,4.2543-2.7871,.942-5.6314,1.8431-8.5228,2.3256-10.5014,1.7525-19.1245-6.4482-20.2321-14.2141-.3171-2.2238-.9953-4.3946,.8506-6.5112-3.1762,.7372-5.3032-1.0473-7.5632-2.5685-1.7865-1.2025-3.6353-2.3248-5.5266-3.3538-.8931-.4859-1.9342-.7439-2.9388-.9676-.855-.1904-1.714-.0971-2.1762,.914,.5949,.5433,1.1416,1.0085,1.6496,1.5125,1.7993,1.7853,3.0433,3.8872,3.6383,6.3688,.9144,3.8147-1.6752,8.2364-6.6243,7.6699-.5536-.0634-1.115-.1318-1.6488-.2825-4.9692-1.4027-9.1535-4.1153-12.7614-7.7529-1.2349-1.2451-1.8642-2.7923-1.8026-4.5573,.0444-1.274,.0854-2.5642,.3156-3.8125,.5648-3.0634,1.2733-6.1002,1.8526-9.1611,.2793-1.4758,.5767-2.9929-.2141-4.4367-1.4969-.6355-2.8579-.0352-4.2185,.3668-2.5736,.7603-3.2173,.4943-4.1483-2.0302-.4965-1.3464-.8314-2.7516-1.2685-4.1209-.7286-2.2824-1.2935-2.7578-3.0708-2.6515-1.8338,.1097-2.4495,.6948-2.9401,2.8363-.1248,.5444-.1199,1.1279-.3049,1.6471-.3188,.8946-.6115,1.8422-1.145,2.6074-1.0441,1.498-3.4055,2.1142-5.2155,1.5053-1.7897-.6021-1.6761-2.1321-1.6864-3.5754-.016-2.2325-.0042-4.4653-.0042-6.7509-3.0987-1.0771-6.0239-2.0037-9.1711-2.0117-.1534,.5062-.296,.8034-.3265,1.1116-.0786,.7938-.1155,1.5922-.1546,2.3895-.0857,1.7503-.4424,2.3398-2.1438,2.6441-6.4784,1.159-12.268,4.62-18.8123,5.5603-1.5375,.2209-2.3269,1.2481-2.328,2.8663-.0012,1.6728-.7168,3.0963-1.7497,4.367-.9075,1.1165-1.8512,2.2035-2.7668,3.3135-1.8309,2.2194-3.8294,4.3278-5.4242,6.7063-1.2694,1.8932-2.2156,4.0578-2.9813,6.2168-.6459,1.8215-.2147,3.5923,1.3481,5.0102,2.605,2.3634,5.0527,4.9049,7.7145,7.1999,3.9047,3.3666,2.8889,3.6579,8.9762,2.1012,4.0187-1.0277,7.9378-2.4402,11.9155-3.6342,3.4552-1.0372,6.9609-1.8282,10.6048-1.7034,5.9291,.203,9.716,3.4679,10.7914,9.283,.386,2.0872,.0626,2.8001-1.8844,3.5138-1.5573,.5708-3.1783,.9676-4.9285,1.4886,.2016,1.2269,.365,2.483,.6197,3.7203,.6719,3.2649-.2088,6.0036-2.6932,8.2237-1.4307,1.2785-2.8383,2.5853-4.3131,3.8109-1.1559,.9605-2.2051,.9872-3.1717-.137-1.029-1.1968-1.8934-2.5679-2.6418-3.9635-.7134-1.3305-1.211-2.7806-1.7567-4.1963-.8612-2.2344-2.5179-3.3916-4.8259-3.8205-.9572-.1778-1.6843-.1657-2.2651,.7596-1.1272,1.7957-2.9371,2.6445-4.8582,3.302-1.5048,.515-3.011,1.0259-4.698,1.6003,1.1749,1.0254,2.2872,1.815,3.1746,2.8059,2.3069,2.5763,1.8242,5.5302-1.175,7.2168-1.0296,.579-2.1883,.9881-3.3371,1.2846-3.2177,.8305-6.5034,.9335-9.7593,.3406-3.7048-.6746-7.281-.5732-10.8443,.7833-1.3927,.5302-2.9387,.7985-4.4335,.8934-4.267,.2708-8.0579-1.096-11.2695-3.882-2.0505-1.7787-3.9493-3.7332-5.9005-5.6249-2.0859-2.0222-4.3331-3.8577-7.1189-4.7622-3.8682-1.2558-7.7741-2.419-11.7168-3.4116-1.837-.4625-3.7952-.4757-5.7042-.6107-1.9579-.1385-3.3659,.797-4.3232,2.4654-.3579,.6238-.7317,1.2402-1.0552,1.8817-1.5133,3.0013-3.8541,5.1467-7.009,6.1987-4.3715,1.4577-8.2652,3.7795-12.1469,6.1701-3.0064,1.8516-6.1498,3.501-9.6319,4.1796-4.8036,.9361-9.4148,2.4733-14.0511,3.9701-2.7541,.8891-5.6004,1.2942-8.5144,1.0797-4.3393-.3194-7.6317-2.1665-9.3749-6.3265-.2778-.663-.6133-1.3021-.887-1.9667-1.0478-2.544-3.0038-3.8791-5.673-4.1888-5.0849-.5901-9.9019,.3081-14.2775,2.9903-2.5177,1.5434-4.908,3.3027-7.2917,5.0519-.7486,.5494-1.5463,1.2782-1.8797,2.1034-1.323,3.2741-3.9804,4.3946-7.1625,4.7808-7.1251,.8649-14.217,.3461-21.2753-.6797-2.9183-.4242-5.8459-1.02-8.4136-2.6186-3.4465-2.1457-3.5646-5.9195-.209-8.1993,.9681-.6577,2.1574-1.0059,3.2713-1.4274,.744-.2815,1.549-.3999,2.2995-.6674,.8692-.3098,1.551-.8549,1.6637-1.8567,.225-2.0003,.1491-3.9507-1.0444-5.9127-.715,.2582-1.4149,.4113-2.014,.7454-2.0232,1.1284-4.1199,2.1693-5.9911,3.5176-5.6554,4.0751-11.3888,7.9623-18.0402,10.3054-1.2912,.4549-2.4014,1.4235-3.8037,2.2831,.8051,.7246,1.3448,1.1712,1.8397,1.6628,1.7225,1.711,2.7213,3.7396,2.5977,6.2185-.0826,1.6565-.723,2.2919-2.3691,2.3658-.7978,.0358-1.6015-.0461-2.3979,.0018-2.3692,.1426-3.0997,.7558-3.6313,3.0341-.163,.6984-.2294,1.4188-.3575,2.126-.8485,4.6829-3.3504,6.8891-8.0758,7.4166-2.0371,.2274-3.8516-.3926-5.7972-.9307,.3834,.7724,.8496,1.3968,1.3614,1.9813,1.3201,1.5076,1.384,3.1328,.5909,4.9063-.6243,1.3958-1.6838,2.2629-3.0157,2.9406-1.2018,.6115-2.4291,1.2525-3.4625,2.1025-6.2075,5.1057-13.325,6.7024-21.1373,5.5327-2.5756-.3857-5.1031-.3682-7.6243,.1677-5.0901,1.0818-9.8104,2.8676-13.283,7.0439-1.1262,1.3544-2.0921,1.4108-3.5557,.4521-1.7199-1.1265-2.4457-2.8878-3.0321-4.7451-.4318-1.3675-.833-2.7511-1.3758-4.0751-.459-1.1193-1.3313-1.7582-2.6444-1.6316-.6343,.0611-1.28,.0494-1.918,.0185-2.3923-.116-4.048-1.3131-5.0218-3.4825-1.0337-2.303-.8661-4.5544,.5234-6.6234,1.1112-1.6546,2.4292-3.1689,3.6078-4.7803,.5821-.7959,1.3363-1.595,.7591-3.0195-1.5238,.2703-3.0263,.414-4.455,.8183-2.2883,.6475-4.44,.3799-6.5183-.6426-1.4322-.7046-2.8474-1.4575-4.2077-2.2909-2.7497-1.6847-5.5029-1.8583-8.4333-.4369-1.5713,.7622-3.2297,1.4136-4.9169,1.854-3.3697,.8794-6.2736,.092-8.6364-2.6464-.798-.9249-1.8982-1.7623-3.0303-2.1944-3.7396-1.4272-5.0014-.5573-4.644,3.4039,.2638,2.9246,.9559,5.8247,1.6407,8.6918,.3967,1.6608,.2303,3.0472-.5457,4.5855-1.2718,2.5213-2.9972,4.287-5.8577,4.7722-.1285,.0218-.2298,.2041-.3421,.3134-.1148,3.5074-.1251,3.4435-3.5602,3.9999-1.6193,.2623-3.1902,.8236-4.7984,1.2536-.0042,4.0128-1.5862,6.9523-4.4713,9.1827-1.2627,.9762-2.6324,1.8129-3.9352,2.7387-1.1069,.7866-2.2679,1.5239-3.2548,2.444-.8246,.7688-1.8255,1.5718-1.6137,3.0809,3.3336,.1682,6.5984,.403,9.867,.4817,4.983,.12,9.9045-.2922,14.6266-2.087,.817-.3105,1.6913-.4704,2.5388-.7007,4.7175-1.2819,8.5072,.196,11.4523,3.9609,.9296,1.1883,1.7795,2.4776,2.439,3.8312,1.9192,3.9389,1.1707,7.2972-2.2455,10.0273-1.4932,1.1933-3.2161,2.0963-4.7337,3.2626-1.7639,1.3558-3.602,2.6891-5.0786,4.3286-2.8849,3.2031-6.2596,5.139-10.6331,5.2021-1.1958,.0172-2.4083,.0724-3.5797,.2902-1.4505,.2696-1.9215,.862-1.818,2.3442,.094,1.3471,.3471,2.696,.6622,4.0124,1.0328,4.3148-.0548,8.0526-2.9148,11.3608-3.196,3.6968-6.4945,7.2985-10.4539,10.1975-5.3914,3.9475-9.5702,8.8797-12.7205,14.7702-1.3512,2.5266-2.9886,4.9213-4.6855,7.237-2.652,3.619-6.0527,6.3276-10.3135,7.9214-1.5631,.5847-3.1276,1.2741-4.5151,2.1845-1.0991,.7211-2.1937,1.7054-2.8212,2.8336-1.1873,2.135-2.6367,4.0108-4.4291,5.6189-3.3265,2.9843-5.4198,6.6327-6.4098,10.9912-.8991,3.9584-3.1119,7.0747-6.2575,9.6736-2.7655,2.2849-5.5391,4.6548-7.8425,7.3813-3.2819,3.8849-7.3081,6.0194-12.2079,6.9643-2.0904,.4032-4.231,1.0647-6.0825,2.0897-5.3719,2.9743-11.0033,5.068-17.0575,6.1153-2.5485,.4409-4.8442,1.5708-6.8257,3.3042-4.8404,4.2343-6.9882,9.1621-4.5401,15.583,1.0767,2.824,1.7846,5.8032,2.4826,8.7538,1.4657,6.1955,.5968,12.0615-2.7735,17.5171-1.0501,1.6998-2.0902,3.4081-3.0601,5.1541-.485,.8729-.8018,1.8392-1.1873,2.7459,.5594,.3895,.8896,.61,1.2101,.844,3.6703,2.6789,4.3794,6.007,1.8434,9.7651-1.1042,1.6362-2.478,3.1596-3.9777,4.4445-2.4848,2.1289-5.179,4.0123-7.7677,6.0214-1.1976,.9294-2.4783,1.7947-3.5091,2.889-5.8467,6.2063-12.6744,10.9574-20.5603,14.2056-3.6104,1.4871-6.6921,3.7484-9.2258,6.7128-1.7655,2.0657-3.47,4.1863-5.14,6.3304-3.4836,4.4725-7.6396,8.1595-12.5694,10.9695-1.9442,1.1081-3.9296,2.1547-5.8059,3.3689-2.4781,1.6036-4.8866,3.3177-7.2829,5.043-.6789,.4888-1.2106,1.1819-1.9238,1.8954,.868,.8279,1.5795,1.4593,2.2361,2.1432,1.1613,1.2097,2.4106,2.3608,3.4091,3.6963,3.3947,4.5404,2.7252,8.713-1.8624,11.9759-1.0379,.7382-2.1467,1.4023-3.2923,1.9574-1.723,.835-3.5178,1.5205-5.2595,2.3187-.6338,.2904-1.3969,.584-1.7707,1.1106-2.6805,3.7762-5.4605,7.5018-7.8443,11.4628-2.2007,3.6569-2.8527,7.7744-2.0867,12.0377,.3247,1.8072,.9825,3.6089,.9714,5.4099-.0184,2.986,1.5198,4.9655,3.5774,6.7131,1.5217,1.2924,3.1584,2.4487,4.7311,3.682,2.719,2.1322,5.2249,4.4778,7.1348,7.3876,2.3826,3.63,3.103,7.5249,1.5396,11.6495-.7901,2.0845-1.774,4.1016-2.761,6.1044-2.1541,4.3709-4.3405,8.7264-6.565,13.0619-1.1812,2.302-1.1151,4.414,.542,6.4716,.6988,.8677,1.2998,1.826,1.8565,2.7941,1.4943,2.599,1.18,4.706-1.1962,6.5242-1.1803,.9031-2.5823,1.6958-4.0065,2.0623-2.6945,.6935-5.4609,1.1945-8.2278,1.5001-4.0496,.4471-8.1358,.5577-12.1882,.984-4.6803,.4924-8.5576,2.5107-11.1766,6.5696-.9464,1.4667-.8592,1.9077,.4334,3.0589,1.1327,1.0087,2.373,1.9209,3.3792,3.0429,2.2878,2.5516,2.9276,5.3912,1.2822,8.6085-1.1053,2.1611-.6171,3.2844,1.7951,3.7492,1.9402,.3739,3.9681,.4432,5.9528,.4084,6.0767-.1065,12.1525-.2979,18.2262-.5231,1.9135-.0709,3.8247-.308,5.7273-.5458,5.7018-.7128,10.2634-3.336,13.5323-8.128,1.2162-1.7827,2.5283-3.4996,3.7701-5.2652,2.5761-3.663,5.7779-6.6016,9.7928-8.6386,1.7096-.8674,3.4009-1.778,5.0518-2.7516,1.0263-.6052,2.0503-1.2694,2.919-2.0755,1.8599-1.7259,2.4328-3.9509,2.3036-6.6707-2.4687,0-4.78,.045-7.0887-.0125-2.3375-.0582-2.8225-.5205-3.0303-2.7845-.3579-3.901-.5134-7.7871,1.5128-11.4116-.7275-.3884-1.2994-.6654-1.8435-.9889-2.9238-1.7383-3.7799-4.2836-2.2839-7.3604,.7272-1.4956,1.7106-2.8863,2.7098-4.2261,2.2939-3.0761,4.6339-6.1194,7.0229-9.1222,1.5415-1.9375,3.1209-3.8576,4.8266-5.6492,4.1045-4.3111,9.1594-6.9489,15.0303-7.8389,4.1047-.6223,8.2512-.9772,12.3843-1.401,3.7948-.3892,6.8736-1.9107,8.9598-5.2368,.8046-1.2828,1.7721-2.4658,2.6956-3.6711,2.6648-3.478,6.1386-5.747,10.3162-7.0528,3.9918-1.2478,8.0705-2.0926,12.2226-2.2781,7.5048-.3353,15.0225-.372,22.5312-.6357,4.8632-.1708,9.5526,.6589,14.1649,2.0702,7.149,2.1875,13.9668,5.0826,19.9923,9.6056,2.4464,1.8364,4.6309,3.9415,6.2048,6.6012,2.8112,4.7505,2.2576,9.4073-1.5736,13.3513-.78,.803-1.6119,1.5568-2.3725,2.3773-2.5313,2.7303-2.9337,5.8009-1.0253,9.012,.9343,1.5721,2.0934,3.0196,3.2304,4.4606,5.2526,6.6564,8.6372,14.1551,10.2297,22.4723,.6532,3.4117,.028,6.515-2.2549,9.212-.4649,.5492-.8768,1.1484-1.3783,1.6606-2.8099,2.8694-4.6016,6.3376-5.7588,10.1184-1.0271,3.3555-2.0157,6.7443-2.6719,10.185-.4896,2.5669-.5726,5.2405-.563,7.8657,.011,3.0117,1.7689,4.8683,4.6011,5.7015,.9921,.2919,2.0225,.4651,3.0441,.6427,2.753,.4786,5.5566,.7495,8.2556,1.4355,4.0336,1.0251,6.9755,3.5271,8.4329,7.4929,1.1521,3.135,.0268,5.902-2.8703,7.5508-.6057,.3446-1.2313,.6542-1.5771,.8369v10.2204c1.2588-.2041,2.2897-.2911,3.2769-.5467,2.7461-.7111,5.5209-.8542,8.3294-.5899,2.2485,.2115,4.1148,1.0552,5.5164,2.9465,2.5683,3.4657,5.1853,6.8983,7.8759,10.2697,2.5201,3.1576,4.1452,6.6624,4.3291,10.7093,.1504,3.3092,1.4607,6.0043,3.7624,8.2976,2.7108,2.701,4.518,5.9415,5.9356,9.4794,.7006,1.7485,1.698,3.4555,2.8878,4.9149,2.5732,3.1565,5.3322,6.1638,8.0661,9.1862,1.2312,1.3611,2.5286,2.6743,3.8966,3.8965,1.6455,1.4703,3.5958,2.4867,5.8283,2.5355,2.7889,.0608,5.6085,.1057,8.3697-.2225,7.2602-.8626,14.0049-3.8018,21.0647-5.5015,1.8319-.441,3.2657-1.6306,4.4465-3.1108,.7971-.9993,1.5698-2.0374,2.4884-2.9172,3.4847-3.3372,7.5063-4.42,12.1099-2.6148,1.3372,.5244,2.6184,1.1903,3.9469,1.7389,2.7344,1.1291,5.5829,1.619,8.4284,.6515,4.3809-1.4895,8.7221-3.1047,13.0326-4.7883,2.2951-.8963,4.007-2.5714,5.2911-4.6956,.7844-1.2976,1.6272-2.5683,2.5416-3.7772,1.7534-2.3182,4.1289-3.4616,7.0402-3.4731,.7197-.0029,1.4513-.0725,2.1572,.0291,3.2253,.4638,5.5333-.8875,7.3662-3.4479,.9728-1.359,2.0873-2.6367,3.268-3.8215,1.5505-1.5559,2.106-1.6005,4.0298-.6211,1.281,.6522,2.5651,1.3191,3.7655,2.105,3.7825,2.4767,7.7389,3.3258,12.0489,1.5162,.2174-.0913,.4731-.0869,.7007-.1593,4.3894-1.3962,8.0549-.2195,10.979,3.2331,1.7024,2.0101,3.2266,4.1702,4.8625,6.2378,1.0399,1.3144,2.0277,2.6988,3.2345,3.846,2.0178,1.9185,4.2383,2.7165,7.2072,1.7751,2.5363-.8042,5.3314-.8577,8.0257-1.0714,1.4335-.1136,2.9019,.5053,3.2331,1.9744,.5599,2.4843,2.2009,2.7509,4.2798,2.827,4.0686,.1488,8.1312,.4614,12.1972,.6892,.6346,.0356,1.284,.0484,1.9096-.0433,2.213-.3241,2.9022-1.2221,2.5677-3.4304-.2751-1.8162-.8058-3.6035-.962-5.4259-.574-6.6973,1.4658-11.4258,7.1447-14.0735,3.4665-1.6162,6.9982-2.6005,10.8202-2.7704,3.908-.1736,7.8179-.4555,11.7057-.8834,3.0133-.3316,5.2457-2.0929,6.3635-4.8628,.9476-2.3481,1.7237-4.8316,2.1049-7.327,.6265-4.1019,.9017-8.2594,1.2716-12.3981,.5171-5.7877,3.2865-9.6517,9.0574-11.2995,3.5321-1.0086,6.4376-3.1488,8.835-5.9484,2.8084-3.2795,5.7082-6.4856,8.3973-9.8598,1.1206-1.4061,2.181-3.0669,2.6163-4.7779,2.3996-9.4326-1.7403-18.8556-9.2373-22.9789-1.4615-.8039-2.8829-1.7415-4.1536-2.8174-1.9089-1.6164-2.5851-3.7936-2.2093-6.2673,1.0629-6.9967,6.5725-12.8019,13.5191-14.1928,2.6626-.5331,5.353-.9257,8.0212-1.4325,3.3398-.6345,5.8557-2.462,7.5317-5.4165,.7884-1.3899,1.5711-2.7873,2.2688-4.2239,1.9403-3.995,4.7897-7.145,8.5711-9.4699,2.179-1.3397,4.3857-2.6434,6.4862-4.0985,1.7008-1.1782,3.3319-2.4811,4.8643-3.8715,1.434-1.3011,1.7767-2.951,1.0012-4.8123-.4904-1.1771-.928-2.3888-1.2498-3.6214-1.2662-4.8497,1.383-9.5031,6.1921-10.8422,1.2233-.3407,2.5083-.568,3.7748-.6249,3.3354-.1497,6.4725-.8952,9.3596-2.6182,.7528-.4493,1.5633-.8027,2.352-1.1911,3.6122-1.7787,7.4446-2.3705,11.4249-2.0219,4.4062,.3859,7.7824,2.5182,9.6653,6.5087,1.0061,2.1323,1.6509,4.5051,2.0517,6.8393,1.0424,6.0717,.3633,12.1529-.7291,18.1304-1.5793,8.642-3.4234,17.2388-5.3114,25.8203-1.2027,5.4668-1.6171,10.9018-.3707,16.393,.6836,3.0119,1.9901,4.1748,5.0409,4.5952,.9504,.131,1.9052,.2948,2.8606,.3135,3.7535,.0738,6.991,1.5207,9.9654,3.6706,1.3598,.9829,2.7405,1.9549,3.9921,3.0664,7.3169,6.4978,14.254,13.3294,19.1086,21.978,.7402,1.3185,1.5844,2.6194,2.5933,3.7364,1.2754,1.412,2.6406,2.8142,4.1991,3.8822,2.1675,1.4854,4.5185,2.7166,6.8475,3.9501,4.9409,2.6168,10.0217,3.0773,15.2334,.7846,.5838-.2569,1.2135-.4109,1.7932-.6755,2.0258-.9248,4.0237-.8363,6.0221,.0792,.6533,.2993,1.3715,.484,1.977,.8562,3.9864,2.4503,8.1164,2.7816,12.6227,1.4875,3.3566-.9639,5.231,.023,7.0978,2.9399,2.3613,3.6896,3.1844,7.8042,3.1548,12.125-.0077,1.113-.5396,1.9354-1.4164,2.6357-4.6465,3.7115-8.607,8.0955-12.1344,12.8517-.9705,1.3085-1.6161,2.9423-2.0792,4.5238-.772,2.6367-.4929,3.1608,2.0677,4.2259,3.6242,1.5076,6.6859,3.7353,9.2043,6.7226,2.2179,2.6309,4.8148,4.5718,8.2709,5.3878,3.3655,.7946,5.6314,2.9829,6.4921,6.3904,.9607,3.8033,2.8016,7.1109,5.3116,10.085,.3597,.4262,.6604,.9032,.9767,1.3648,4.3106,6.2919,4.3298,12.6328,.2545,19.0466-.5726,.901-.9856,1.9035-1.4725,2.8589l.3563,.4854c.8065-.1376,1.6411-.1868,2.4136-.4317,1.4446-.4582,2.8486-1.0424,4.2776-1.5517,2.6931-.9595,5.0361-.3618,7.016,1.663,.7818,.7994,1.4932,1.6671,2.2503,2.4912,.5402,.588,1.0608,1.2046,1.6646,1.7218,1.6012,1.3721,5.0189,1.8196,6.5158,.5908,1.6691-1.3701,1.4728-3.4231,1.1334-5.3265-.1802-1.0101-.6665-1.9629-.983-2.9517-1.5406-4.8113-.1011-8.2621,4.4049-10.5336,.998-.5031,2.0207-.96,3.0464-1.4049,1.8191-.7892,2.8938-2.1992,3.4683-4.0484,.6826-2.1974,.225-3.5488-1.8205-4.5917-1.2687-.6469-2.6497-1.119-4.0278-1.4956-2.5411-.6944-5.1129-1.2789-7.6797-1.8757-2.9924-.6957-4.8491-2.5398-5.8769-5.4125-1.275-3.5634-2.0212-7.2258-2.4204-10.9733-.4326-4.0592,.637-5.8451,4.4495-7.4288,2.0588-.8553,2.9197-2.4116,2.312-4.5376-.2551-.8922-.7839-1.7445-1.3406-2.5032-.8495-1.1578-1.8838-2.179-2.7479-3.3273-3.9219-5.2125-2.276-11.252,3.7946-13.6903,1.7667-.7096,3.6858-1.0316,5.5143-1.5982,1.899-.5884,3.8791-1.049,5.6324-1.9414,2.5114-1.2781,3.1121-3.5041,2.0037-6.0849-.2206-.5136-.485-1.0082-.7184-1.5165-1.9715-4.2942-1.3118-8.7462,1.9633-12.1877,1.2035-1.2647,2.5913-2.3861,4.0184-3.3992,2.7811-1.9742,5.1302-4.3195,6.878-7.2555,1.9532-3.281,4.509-6.0172,7.6539-8.1629,3.5267-2.4063,6.1731-5.5061,7.9821-9.3724,1.6814-3.5938,4.0061-6.7214,7.1011-9.2449,2.2827-1.861,3.9082-4.2136,5.0412-6.906,.8051-1.9134,1.7346-3.8081,2.2487-5.8038,1.7526-6.8033,3.4277-13.6296,4.9429-20.489,.3851-1.7437,.3466-3.6943,.0168-5.4591-.7031-3.7622-1.8465-7.4412-2.58-11.1991-.6819-3.4935-1.9788-6.7231-3.4492-9.9276-1.3986-3.0476-2.8197-6.1018-3.937-9.2571-1.3465-3.8025-.2941-6.393,3.1174-8.5912,1.2079-.7783,2.5213-1.4,3.6919-2.2272,1.9752-1.3959,2.3509-2.9932,1.378-5.2-.1289-.2925-.2804-.5752-.405-.8694-1.7463-4.124,1.3601-9.0761,5.798-9.3878,1.4975-.1051,3.0033-.4412,4.4479-.8667,2.1428-.6312,4.234-1.4372,6.3481-2.1663,2.3742-.8188,4.8125-1.1455,7.3182-.9369,2.857,.238,3.2469,.6805,3.2193,3.58-.0228,2.3983-.1156,4.8005-.0114,7.1937,.0641,1.4708,.1262,3.0471,1.9079,4.5009,.3464-.5554,.6648-1.1036,1.0192-1.6274,1.1201-1.6552,2.1398-3.396,3.4132-4.9249,1.3693-1.6443,2.829-3.2867,4.52-4.5744,3.4026-2.591,10.4459-1.5269,11.1778,4.7438,.3676,3.1494,.4233,6.3865,.1632,9.5464-.4521,5.4923-1.129,10.975-1.9518,16.4256-.8659,5.736,.5447,10.1689,5.9275,13.117,3.7884,2.0749,6.5298,5.3465,8.6882,9.0864,1.1184,1.9378,2.2367,3.8781,3.4304,5.7698,2.5079,3.9742,6.1808,6.1529,10.7979,6.7704,1.1863,.1587,2.3932,.2519,3.5889,.2375,7.0804-.0849,14.0135,.9094,20.881,2.5867,2.048,.5002,4.168,.9932,6.6803,.5953-.3067-1.4344-.521-2.742-.874-4.011-.4491-1.6142-1.1539-3.1671-1.4967-4.7993-1.0323-4.9148,2.3428-9.1204,7.3555-9.4205,2.8596-.1712,5.0886,1.0407,6.8237,2.7489,4.9271-1.8061,9.5525-3.8642,14.3793-5.1884,7.7665-2.1307,15.6522-3.8383,23.5182-5.5868,2.0892-.4643,4.3805-.6566,6.3526,.4259,3.3567,1.8426,6.7041,3.743,9.8505,5.9158,3.0011,2.0725,3.606,5.4955,1.9215,8.7271-.5531,1.0611-1.2421,2.0504-1.8297,3.0947-.666,1.1839-.8255,2.4547-.1999,3.6804,1.7228,3.3753,3.7161,6.5466,7.0902,8.5605,2.1961,1.3108,4.4634,2.5146,6.5795,3.9432,1.7106,1.1548,3.4005,2.4232,4.8192,3.9089,2.4639,2.5803,3.0459,5.711,1.9267,9.1256-.219,.6679-.4338,1.3372-.6567,2.0246Z"/>
  </g>
</svg>