<?xml version="1.0" encoding="UTF-8"?>
<svg id="Layer_1" data-name="Layer 1" xmlns="http://www.w3.org/2000/svg" width="1087.3052" height="1826.3979" viewBox="0 0 1087.3052 1826.3979">
  <defs>
    <style>
      .cls-1 {
        fill: #e91c25;
      }

      .cls-2 {
        fill: #ea1c24;
      }

      .cls-3 {
        fill: #010101;
      }

      #tongue {
        transform-origin: top center;
        transform-box: fill-box;
        animation: lick 2s ease-in-out infinite;
      }

      @keyframes lick {
        0%, 100% {
          transform: rotate(0deg) scaleY(1);
        }
        33% {
          transform: rotate(-8deg) scaleX(0.95) scaleY(1.15);
        }
        66% {
          transform: rotate(8deg) scaleX(0.95) scaleY(1.15);
        }
      }
    </style>
  </defs>
  <path class="cls-3" d="M286.9848,1553.3192c.0093,.0155,.0187,.031,.0262,.0475l-.0262-.0475ZM90.3344,11.9897c.0087,.0114,.0189,.0213,.0302,.0303l-.0302-.0303Zm5.97,7.0363c.0069,.0111,.0145,.0212,.0231,.0309l-.0231-.0309Zm495.1871,1705.0938c-.3778-.0364-11.5028-17.2985-11.4202-17.6771-1.71-2.354-3.4199-4.7081-5.1299-7.0623l.0027-.0021c-1.5134-2.0829-10.6536-14.9917-12.0333-16.967l.0034-.0027c-1.6708-2.3285-3.3415-4.6572-5.0122-6.9857,0,0-4.2899-6.1719-6.3695-9.3085-1.2157-1.6715-6.5515-9.2484-6.4749-9.6365-1.8413-2.7876-6.0726-8.6414-5.9874-9.03-16.2223-22.138-28.9413-81.8459-64.874-53.6077-.1268,.3894-.3857,.5233-.7765,.4016-1.4061,.8774-2.8123,1.7549-4.2186,2.6324-.1081,.3815-.351,.5121-.7286,.3915-20.4637,12.747-42.8583,22.8955-67.2983,24.2429,2.9086-.7125,5.8125-1.4453,8.7192-2.166-13.8362,3.0644-29.503,5.2764-43.296,1.5273,1.8851,.5886,3.7643,1.2013,5.6531,1.7747-11.752-3.2559-24.9179-3.6893-35.3641-10.3468l-.4225,.0198-.2413-.3472c-1.4213-.9011-2.8428-1.8022-4.2643-2.7034-.4001,.075-.6389-.0874-.7159-.4871-.7831-.495-1.5665-.99-2.3499-1.4851-.3798,.0941-.5987-.0524-.6566-.4393-.7953-.5146-1.5908-1.0294-2.3863-1.5442-.3707,.0862-.5752-.0601-.6133-.4387-1.5118-1.1671-3.0237-2.3344-4.5356-3.5017l-.3719-.0522-.0999-.3619c-4.4552-3.1503-8.0323-7.2283-11.3044-11.5565l.0024-.0017c-2.1439-3.0933-4.288-6.1866-6.432-9.2799-.3754-.0454-.5239-.2531-.4451-.6229-87.6925-142.0129-23.3076-111.1604-25.5136-228.3799-.3822-.1252-.5228-.3824-.4217-.7716-1.8869-2.3808-3.8575-4.6791-5.5083-7.2377-.4022-.0936-.5678-.3438-.4967-.7504-14.8307-12.9292-29.0633-26.5868-44.2951-39.0328l-.4234-.0321-.1565-.3945c-4.6561-2.7598-9.1049-6.1696-13.8742-8.5958l-.1285-.3873c-4.1232-3.5352-8.2465-7.0704-12.3699-10.6057l-.4421-.0299-.1841-.4028c-9.7192-9.2616-18.6549-19.5486-28.1626-28.8804l-.0568-.411c-4.7097-4.7619-9.0233-10.1668-13.9413-14.6041l-.049-.4226c-35.8516-61.2739-19.5514-135.1741-29.2057-202.4595-25.9065-83.1632-34.8623-169.3593-27.8879-256.186-.1284,2.0398-.2885,4.0797-.4065,6.1194,.2341-49.594-21.9812-94.9071-26.1341-143.8072,.3723-28.8058-29.7134-43.219-44.4887-64.8089l.0021-.0015c-2.4918-3.7622-4.9836-7.5244-7.4755-11.2864-.3597-.0681-.4871-.2775-.382-.6281-20.6837-40.8307-2.3502-89.8187-13.6279-133.4368,2.724-67.6752-21.9789-142.5767,10.6194-205.3062l-.0007-.4065,.3528-.2018C66.5096,183.4337-.6316-25.0557,86.6118,8.9556l.4008,.0049,.1932,.3511c6.6503,5.3764,11.1406,12.7896,15.8131,19.8391,.3687,.1038,.4821,.3337,.34,.6893,18.4118,30.788,29.8864,66.8001,57.0881,91.1027l-.0322-.0348c22.9663,22.0296,44.4209,45.5092,66.6297,68.2814-.7084-.5972-1.4232-1.1875-2.1392-1.7766,15.6286,14.683,29.7264,30.9582,43.0651,47.7437l.3903,.1211,.0615,.4039c8.4678,12.1286,16.4471,24.5473,23.6669,37.4618l.3405,.1458-.0023,.3704c6.4908,10.7644,13.598,21.0713,20.6048,31.4905l.3659,.1777,.0017,.4065c.5375,.806,1.0751,1.6121,1.6128,2.4182,.3467,.0898,.4675,.306,.3622,.6483,.8639,1.119,1.7278,2.2382,2.5917,3.3573,.3627,.0659,.499,.2775,.4091,.6348,7.9095,11.0039,11.8309,24.2663,17.7595,36.3718-.4603-.8694-.9266-1.7358-1.394-2.6018,16.279,77.9293,74.1582,49.3368,133.2732,57.9019-.5999-.3168-1.2064-.7057-1.8215-.9813,48.4295-1.7177,165.5208,9.0714,190.7952-39.1984l.3121-.1414c1.6137-2.7786,3.0849-5.6324,4.7433-8.3867-.1125-.3364,.0054-.5378,.3536-.6045,11.9202-23.86,24.1374-48.3447,45.8236-64.8932l.134-.3243,.35-.024c43.0188-31.8108,96.5254-44.9639,141.5195-73.6049,.0955-.355,.3138-.4641,.6548-.3271,1.4545-.8306,2.9091-1.6611,4.3636-2.4917,.0986-.4021,.3492-.5547,.7517-.4575,12.2164-6.9808,24.2211-14.6903,35.4233-23.0803l.4099,.0105c12.1409-8.3934,22.4353-18.9861,33.0861-29.14h0c4.5993-4.4774,8.9746-9.1612,13.1257-14.057-.0466-.3861,.1245-.5845,.5132-.5952,1.1505-1.4983,2.301-2.9968,3.4514-4.4954l.0355-.3936,.3737-.1288c.5089-.9417,1.5342-1.7404,1.6747-2.8079l.4042-.1805c.8506-1.129,1.7012-2.2583,2.5518-3.3875l.0273-.4316,.3906-.1857c.8617-1.1254,1.7235-2.2509,2.5853-3.3763l.0135-.4309,.3845-.1947c2.2551-3.8692,6.8481-5.9357,8.6204-10.1199-1.1814,2.4479-2.8789,4.5792-5.5202,6.1315,2.5138-4.0981,5.0275-8.1963,7.5411-12.2944-.4247,1.8545-.9311,3.6589-1.6457,5.3357,.7146-1.6768,1.221-3.4812,1.6458-5.3357-.142-.3726-.0209-.6123,.3634-.7188,.8787-1.4271,1.7574-2.8542,2.6362-4.2815-.1152-.3862,.0238-.6238,.4167-.7124,2.519-4.4493,5.0378-8.8984,7.5568-13.3477-.1378-.3521-.0233-.5731,.3436-.6632,10.5007-19.5988,20.8382-39.266,30.7256-59.1796-.1145-.3844,.0131-.6543,.3826-.8096,3.74-7.3126,8.062-14.4733,11.5094-21.8662l.3375-.146c3.3023-4.8322,7.752-8.8959,12.879-11.7212,.1349-.3574,.3876-.4897,.7579-.3967,68.5804,11.0095,37.4299,125.811,37.8159,177.0681-4.4579,50.6533,11.8593,98.5955,19.054,148.0701-.2872-.1326-.6973-.261-1.0367-.3918,.3394,.1309,.7494,.2593,1.0366,.3918,1.4908,39.2467,6.2226,82.8638-16.5022,117.288,.1525,.3314,.0563,.5565-.2885,.6753-.58,1.0841-1.1599,2.1682-1.7397,3.2524,.1284,.3485,.0219,.5958-.3198,.7415-5.8558,9.8497-11.7117,19.6993-17.5674,29.5488l-.0023,.3361-.3129,.1223c-1.2424,1.8112-2.4849,3.6223-3.7273,5.4333l-.0037,.3923-.3551,.1663c-2.2139,3.4761-4.4277,6.9523-6.6417,10.4285v.4041l-.3655,.1724c-1.8682,2.8314-3.7366,5.663-5.6049,8.4946l.0068,.3655-.3344,.1473c-1.2388,1.7926-2.4775,3.5854-3.7163,5.3783l-.0239,.429-.3914,.1772c-59.7098,72.2823-77.7002,161.2534-109.5771,245.4236l.0142,.4016-.3582,.1819c-.5723,.5504-1.2098,1.0585-1.8093,1.5912,.5995-.5327,1.237-1.0408,1.8093-1.5911-68.3659,85.2282-23.3522,204.6872-92.681,290.3473,.1304,.3407,.0195,.5586-.3325,.6537-.8947,1.4359-1.7893,2.8719-2.684,4.3081,.1161,.3625-.0107,.5895-.3804,.6808-4.2448,6.4427-8.4433,12.9152-12.5781,19.4292l.0142,.3906c-.892,.573-1.3567,1.6842-2.0673,2.4727,.0759,.377-.0731,.6105-.4469,.7004-.5037,.7426-1.0073,1.485-1.5111,2.2275l.0311-.0461c-6.561,9.2417-12.7349,18.7476-19.0635,28.1462,.1095,.3473-.0098,.5746-.3579,.6816-.5485,.7722-1.0969,1.5444-1.6453,2.3167,.1149,.3368,.0049,.5654-.3298,.6858-.5333,.8313-1.0665,1.6626-1.5999,2.4939l-.0085,.3674-.3407,.1381c-1.2311,1.7915-2.462,3.5831-3.6931,5.3746,.1223,.3292,.0137,.5386-.326,.6279-2.2174,3.1466-4.4347,6.2931-6.6521,9.4396l-.0182,.3903c-.9158,.5222-1.3155,1.728-2.0116,2.5225,.1005,.3531-.0289,.5673-.3882,.6423-.5505,.7565-1.101,1.5129-1.6515,2.2695,.095,.37-.0402,.611-.4054,.7229-2.936,4.003-5.6117,8.1897-8.4035,12.2935l.0031,.0024c-5.9362,9.2193-11.7828,18.483-17.1674,28.0363,.1243,.3361,.0172,.5631-.3212,.681-73.606,127.0678-34.3653,131.356,13.4385,253.8086h-.0003c45.7118,108.3396,132.4319,264.4605,13.722,356.1627-27.1017,13.1884-62.2534,5.4877-84.1375,30.2687l-.3551-.0116c-18.7421,15.3712-49.358,18.3581-62.6412-4.8947-13.1755-21.7113-9.834-48.8076-21.5978-71.3344-.379-.0858-5.4475-9.5641-7.9741-14.0037m65.4174-983.3907c-11.7727,6.8313-34.3746,1.2738-41.3586,12.8952,1.0388,32.4087,50.994,16.0718,65.4374,1.7555,46.1162-34.0554,4.9364-108.2768,4.7665-66.6626,5.0138,22.5009-7.2151,44.3175-28.8454,52.0119Zm-8.1188-33.4317c-1.0653-27.8654-33.0201-27.3775-31.8843,.7693-.3625,.191-.7252,.3821-1.0878,.5731,2.3118,6.5325,5.0166,10.425,11.7017,5.6039,6.1598-12.2291,18.1958,6.2458,21.2704-6.9463Zm-127.772-137.5537c-13.4322,14.177-4.3254,61.8296,22.4365,55.681,40.4375-36.9287,18.3527-10.6267,53.8462-25.3919,1.4698-5.4214,9.1847-16.2397,4.5972-20.824-7.808-3.3473-2.7875-12.26,4.2917-10.9474,54.0412-7.3276-50.1522-78.26-85.1716,1.4823Zm-10.4623,270.0155c.115,.2979,.2167,.6055,.3017,.9255-.085-.32-.1867-.6276-.3017-.9255Zm-37.7162-396.5907c-.0284,.9424-.2076,1.8425-.4837,2.7153,.2761-.8728,.4553-1.7729,.4837-2.7153Zm.129-9.5145c-.139-.2162-.324-.4154-.5538-.5979,.2298,.1825,.4148,.3817,.5538,.5979Zm-1.6407-1.1866c.1095,.0416,.213,.0853,.3123,.1306-.0994-.0453-.2028-.0891-.3123-.1306Zm16.6254,395.1779c.4562-.2543,.9218-.4835,1.4033-.6599-.4816,.1764-.9471,.4056-1.4033,.6599Zm4.9914-1.2692c.4052,.0049,.8104,.0337,1.2133,.086-.4029-.0523-.808-.0812-1.2133-.086Zm-43.2381-390.9254c.7056-.713,1.6441-1.3624,2.5695-1.8846-.9251,.522-1.8642,1.1719-2.5695,1.8846Zm-25.111,80.174c.5477-1.4458,1.0916-2.8928,1.6153-4.3464-.5237,1.4536-1.0675,2.9006-1.6153,4.3464Zm-60.7686,236.1289c-.2372,.1182-.4555,.263-.6501,.4407,.5124-.4635,1.1384-.6832,1.8306-.8154-.426,.0797-.8246,.1974-1.1805,.3747Zm-1.4415,1.7772c.1078-.3661,.2567-.6748,.4421-.9326-.1855,.2578-.3344,.5665-.4421,.9326Zm-110.5417-212.1335c-11.5516,13.4852-8.6757,1.6187-13.3269,18.9878-9.7105,10.1528,9.8029,16.1256,8.6466,26.6109-6.6728,.7921-10.1159-8.5676-16.2821-7.7197-5.5307,9.4626,4.8506,21.6812,12.4017,26.666,22.4895,15.9955,24.0706-.3048,32.2068,4.1414,3.5754,5.1791,8.6905,5.5365,14.1944,5.3598,13.881-1.8595-4.0106,19.6387,4.2584,27.8688,83.8792-56.5575,33.613-173.3761-42.0991-101.915Zm80.4839,233.725c.0419,.0016,.0861,.0069,.1277,.0082-.0416-.0013-.0859-.0065-.1277-.0082Zm-24.6024,20.3156c.012-.0117,.0245-.0225,.0366-.0343l-.0366,.0343Zm-42.7444-58.8243c5.4434-17.6424,8.5192-47.9941-7.4864-59.7565-3.8948-2.5047-7.8942-1.992-7.3546,3.96-.0908,17.948,12.9398,55.663-15.8496,58.6985-10.8489,15.4887-56.4077,8.2193-51.4945,25.2836,10.9439,25.7714,24.4587-1.1286,41.2684,6.5356,16.6836,5.852,33.7856-22.4847,40.9167-34.7212Zm-80.6652-22.569c3.4604,9.0535,5.1472,8.0497,12.9188,2.1103,6.2345-6.1685,8.7042,4.6577,15.1412,2.53,10.2082-25.9086-23.1547-38.4748-28.06-4.6402Zm14.593,151.6932c-.4773,.6595-.8476,1.3745-.7993,2.1206-.0483-.7462,.322-1.461,.7993-2.1206Zm11.169-4.0049c.2838,.0272,.563,.0368,.8382,.0306-.2751,.0062-.5544-.0034-.8382-.0306ZM80.1045,575.0959c29.6971-6.3532,47.1865,20.1833,64.441,6.0088,80.82-47.536,113.9638-139.9287,126.7267-228.4626,26.2586-113.4216-109.1063-154.8784-160.6337-233.3328C37.3584,22.9919,90.1105,154.9771,26.4315,230.5188c-32.7647,94.7907,7.361,195.4273-7.808,290.5781,.4714,.0452,.9428,.0903,1.4142,.1354-4.943,38.6845,21.752,65.7484,60.0668,53.8636Zm64.1993,105.5293c-.0205,.8602-.0397,1.7207-.0629,2.5806,.0233-.86,.0424-1.7202,.0629-2.5806Zm10.0637,47.8052c.0187-.1576,.0413-.3121,.0665-.4646-.0253,.1523-.0478,.307-.0665,.4646Zm.2045-1.0867c.0422-.1465,.0893-.2893,.1478-.423-.0585,.1337-.1056,.2764-.1478,.423Zm.469-91.1135c-.0839,.7786-.1743,1.5558-.2864,2.3284,.1121-.7726,.2026-1.5498,.2864-2.3284Zm.3146,89.8506c.1923-.1466,.4232-.2629,.7015-.3418-.2783,.0789-.5092,.1952-.7015,.3418Zm-51.9094-23.0344c-.0924,.2075-.1645,.4233-.2261,.6431,.0616-.2197,.1337-.4355,.2261-.6431Zm.5466-.9595c.2131-.3076,.4541-.604,.7139-.8929-.2598,.2889-.5008,.5853-.7139,.8929Zm3.8773,137.6243c.1542-.2668,.3242-.5334,.4884-.8-.1642,.2666-.3343,.5332-.4884,.8Zm49.2742,385.2596c.2109,.2307,.4164,.4632,.6168,.6976-.5327-.6279-1.1214-1.2294-1.6612-1.8488,.3375,.3875,.6943,.7682,1.0444,1.1512Zm9.0619,12.182c-.9209-.0599-1.6312-.3351-2.1314-.8251,.5002,.4899,1.2105,.7651,2.1314,.8251Zm38.2027,33.9287c-.1323-.1432-.2598-.2929-.3827-.4483,.1229,.1554,.2504,.305,.3827,.4483Zm2.5789,1.6526c-.1124-.0347-.2225-.0723-.3302-.113,.1077,.0407,.2179,.0782,.3302,.113Zm296.5377,177.4891c.0574-.6816,.1149-1.3634,.1723-2.0449m-136.4099-696.9827h0l.0038-.0002h0l-.0228,.019,.0093-.0093c-1.6963,1.2174-3.3927,2.4349-5.089,3.6523h0c-3.9316,2.7554-8.6745,4.1176-12.9658,6.2427l-.1436,.3-.332-.0196c-10.1513,6.3983-5.5644,23.0019-18.4677,13.5431-2.7184,.1953-5.5613-.3201-8.0938,.8641-.103,.3757-.3466,.5312-.7308,.4667-1.1114,22.3002-27.5798,23.943-42.2366,36.8248l-.4377,.3145c-2.0644,1.3771-4.1287,2.7544-6.1929,4.1316v.0002c-1.1257,.833-2.2488,1.6695-3.3737,2.5035l-.4871,.3401c-.8348,.5802-1.6696,1.1605-2.5043,1.7407,0,0-2.026,1.4729-3.0012,1.9934l-.4374,.291c-20.5708,8.0181-26.0089,38.2921-34.0624,28.9625-1.1907-.1419-2.3814-.2838-3.5721-.4256-.9742,.7386-1.9484,1.4772-2.9226,2.2157l-.0037,.0032c-1.0051,.9872-2.0101,1.9744-3.0153,2.9617l-.0159,.0212h-.0001c-4.8865,11.764-20.8743-2.8098-19.2182,13.9949-18.2014,47.8807-21.9812,15.4039-29.1899-14.0309,.578,1.4857,1.201,2.9573,1.7972,4.4373-5.8391-34.9181-22.3966-83.0704,1.3781-113.337-.5649,.6477-1.2302,1.2825-1.7232,1.9395,3.9687-9.7097-2.2628-18.5295-5.8828-27.0577h.0001c-.6642-.4126-1.3997-.7206-2.0889-1.0961-1.0195,.0524-2.0389,.1049-3.0583,.1571-1.1573,.8147-2.3146,1.6294-3.4718,2.4441v.0002c-35.075,43.7158-8.1063-79.475-2.2636-93.3677h0c-.8949-13.2947-10.9683-3.4851-14.0297,3.4338l.0238,.3468-.3168,.1432c-9.7611,18.8571-18.992,38.0078-29.79,56.3037,.1287,.3484,.0145,.574-.3424,.6765-1.2183,1.774-2.4366,3.5481-3.655,5.322,.0783,.4019-.0861,.6248-.4932,.6689-1.0795,2.7095-2.1589,5.4189-3.2383,8.1282h0l-.0099,.9822,.2431,.4229-.2545,.4159c5.4385,30.0043,8.8462,60.2443,6.4641,91.0305h0c-.3684,10.329-.7073,20.6592-1.0543,30.9889h0c-.2312,2.4432,.1783,5.0909-.4203,7.4308,.0765-.1334,.1489-.2668,.2144-.4004-.7768,69.8832,8.3459,139.4154,29.8539,206.0699-.7733-2.608-1.593-5.2034-2.3463-7.8165,5.3345,16.251,3.1895,33.8545,3.6909,50.7343h0c-.1675,7.6853-.104,15.3719-.0889,23.0583h0c-.0108,1.6673-.0213,3.3347-.0283,5.0018h0c-.1083,10.683,.3108,21.3423,1.0148,32.0005h0c.4539,27.2171,8.2854,53.4816,17.2408,78.9767l.3237,.1527-.0338,.3563,1.6549,2.4968,.353,.1613-.0273,.3872c1.8371,2.8528,4.3727,5.0933,6.7777,7.4508h0c11.852,9.4891,22.6173,20.3051,34.4194,29.8149l.4141,.0018c2.1171,2.2961,5.0611,3.9733,7.4645,6.0466h0c3.4014,3.039,7.3133,5.4022,11.0798,7.9655,.3597-.0725,.5676,.0726,.6237,.4353,.9715,.4352,1.8608,1.3031,2.8973,1.4701l.1295,.2726c17.3773,10.8145,40.694,15.6574,61.0645,15.2193,4.0847-1.4765,8.1692-2.9503,11.9171,.7708h0c1.7699,3.5227,2.9311,7.4176,4.6205,11.0298h0c9.029,33.1007,28.4322,70.3709,6.3217,102.8365h0l-.0544,.0802c-.5298,.7732-1.0596,1.5463-1.5894,2.3195l.0048,.0045c-.0092,.0068-.0187,.0134-.0242,.0238l-.0027-.0031c-2.6362,2.0312-5.2723,4.0624-7.9083,6.0937v.0003l-.0002-.0002h0l-.2491-.3932,.2383,.3956c-1.6965,.5316-3.3983,1.0485-5.0934,1.584,1.6951-.5355,3.3969-1.0523,5.0934-1.5839-3.4873,1.8591-6.9746,3.7183-10.462,5.5773,.0472-.398,.0414-.9416,.0663-1.4011-.0689,1.5354-.1114,2.9788-.144,4.4987,1.2587,1.6327,2.2831,3.2191-.7886,3.9971h0l-.135,.2337-.2698-.0028c-13.1494,5.9015-19.5366,18.5508-16.0421,32.7423h0c9.1822,16.2392,24.2985,64.3265,27.3206,84.0019,3.7022,10.1379,16.2427,20.9617,24.9954,26.7235,17.1135,11.5802,42.8984,13.7347,59.6721,.8313v-.0002l.0002,.0002h0l.3065,.2718-.2747-.3043c2.4697-2.0449,3.916-4.8421,5.5345-7.5526,.0143-1.3373,.0287-2.6747,.0431-4.012-1.4888-1.6104-3.1992-2.9904-4.8152-4.4689,23.7617-10.1265,55.0295-8.3497,78.3707-22.5024-.873,.9977-2.2725,1.5694-4.0793,1.8119,1.665-2.0586,3.33-4.1171,4.9948-6.1756v-.0007c.7204-1.0231,1.4446-2.0504,2.1687-3.0778l-.0198-.3954c3.4119-18.091,14.3662-29.0513,28.0318-41.5643-.0924-.3563,.044-.5571,.4092-.6024,2.9809-11.6176,9.07-34.8246,9.07-34.8246,.8523-3.6575,1.1728-7.455,1.919-11.13h0c3.4174-43.9681-.4529-89.4969-18.754-130.1008h0c-2.0902-4.181-4.9461-7.9535-7.3469-11.9658l-.3377-.1134-.0159-.3557c-3.7256-4.1131-7.4514-8.2261-11.1769-12.3391l-.4051,.01-.1735-.3662c-5.987-2.6621-11.974-5.3242-17.9609-7.9862h0c-10.2467-1.2909-20.6739-1.2568-30.9838-2.058h0c-14.6675-.938-29.3535-1.5411-44.0335-2.2456h-.0001c-39.8367-.7804-91.3769,16.2991-116.274-24.6389l-.032-.3025c-7.5091-31.4793-6.3766-33.6994-32.991-60.6943l-.0331-.2817c-1.2009-1.5499-2.4019-3.0997-3.6027-4.6495h0c-2.1747-2.5215-4.0034-5.3164-6.0054-7.9739l-.3227-.1012-.0305-.3368c-9.5984-9.7202-8.487-24.0788-14.7086-35.5543l-.2877-.1183-.0134-.3108c-2.5065-3.2311-5.0536-6.4276-7.6628-9.5765l-.3064-.11-.0206-.325c-1.5618-2.1876-3.1235-4.3754-4.6852-6.563l-.308-.136,.0126-.3364c-4.9485-9.7928-11.5687-19.2056-5.0023-30.0736l.01-.3392,.3184-.1173c1.6793-2.282,3.3719-4.5289,5.5293-6.3861l.2847,.3607-.2612-.3779c13.9849-10.3708,29.5819-19.5345,39.1472-34.4978l.3304-.0959c.8734-1.1964,1.7468-2.3928,2.6201-3.5892l.3115-.4142c2.5729-3.5072,5.1458-7.0145,7.7188-10.5217l-.0009-.349,.3244-.1288c1.579-2.126,3.1582-4.252,4.7372-6.3779h0c6.6853-8.2173,13.1765-16.6472,20.9675-23.8699l-.0367,.0369c4.6935-4.0739,9.8227-7.6566,15.5026-10.2096,2.9887,.3425,4.3289-.4469,5.3615-2.3798-1.0324,1.9327-2.373,2.7223-5.3615,2.3796,9.4799-3.7858,1.7551-15.6808,12.7487-20.5469h0c8.9005-8.0001,21.0604-1.7427,30.9499,1.0829,48.6985,10.3809,111.1376,.0967,141.9722,48.8823l.3209,.1517-.034,.3534c3.4881,5.8792,5.3954,12.1667,6.3813,18.9047-.695-3.405-1.3852-6.8109-2.0769-10.2166,1.6736,6.9471,3.3473,13.8944,5.0209,20.8414h-.0001c1.7475,20.5456-1.6678,40.8293-5.6888,60.9209h0c-4.0942,26.3915-16.4674,55.3975-4.0308,81.0565l.3711,.5568c.5458,.814,1.0916,1.6278,1.6373,2.4418l.3681,.5366,2.7312,3.4552,.3242,.4313c.5781,.8527,1.1561,1.7053,1.7341,2.558l.2869,.4095c7.4072,8.8298,8.9244,19.8617,11.5635,30.6454h0c1.3414,1.4732,2.8367,2.7319,4.5309,3.7817l.4255-.0087,.1923,.3796c14.6455,10.0647,32.7539-1.2959,46.9423,8.0194-1.2496-.2162-2.6703-.2327-3.9854-.3725,34.4933,9.1454,46.6123,25.9325,80.0269,.4847,9.0681,.7736,7.0894-11.7978,10.4336-17.2927,7.3092-15.691,23.4702-7.1702,29.6427-23.9395-1.3376,2.3031-2.6751,4.6062-4.0126,6.9093,1.0429-12.5363,14.7854-18.1671,20.8121-28.3187-.0948-.3583,.0375-.5824,.397-.6722,15.3952-36.1107,37.786-69.1119,43.4568-107.2836l-.0042-.0038c2.2195-2.3571,3.5219-5.2818,5.153-8.0417-.1262-.3252-.0265-.5504,.299-.6757,7.9953-19.4225,18.2019-55.917-.9092-71.0929,1.4944,.1217,2.7215,.5163,3.699,1.1657-.9775-.6494-2.2046-1.044-3.6989-1.1657-3.75-2.8202-7.7406-5.315-11.7927-7.677l-.328-.0009-.1237-.3037c-2.3075-1.1431-4.4999-2.8199-6.8773-3.6796l-.1283-.2788c-17.5518-10.7543-37.6616-14.2891-57.9349-15.1523,.9385,.0223,1.8793,.0311,2.8215,.032-10.9388,4.6366-81.3689-3.2204-72.9249-18.6457,9.8716-15.3368-13.3287-4.1555-11.8471-23.2423,.6472,1.1196,1.2709,2.2546,1.9103,3.3793-2.516-5.4886-7.723-8.7805-12.5101-12.1296l-.366,.0114-.1387-.339c-1.5079-.8874-3.0157-1.7747-4.5236-2.662l-.3528,.0018-.1242-.3302c-2.1447-1.475-4.2893-2.9501-6.434-4.425l.1604-.2078-.2088,.1591c-5.9466-8.4389-5.5389-19.347-12.4674-27.4512,.27,.304,.5535,.6027,.8452,.8981-27.8487-35.7407,1.8768-22.1822-9.2333-43.5828h.0001v-.0002h0l.0014-.001c-2.6431-3.3624-5.1448-6.8309-7.6801-10.2745h0c-5.2196-5.9482-13.0684-10.9041-21.0027-6.2681h0l-.1816,.3906-.4293,.0347c-14.3892,12.2839-28.6756,22.5242-45.866,8.3428,1.8331,1.1289,3.6448,2.3063,5.4937,3.4078-8.976-4.1291-17.8303-8.8575-26.8704-12.6877l-.1279-.3258c-10.9443-7.3563,16.2294-12.9793,19.7488-20.4758,.1429-1.1638,.2858-2.3275,.4288-3.4913-7.0319-5.3906-12.5402-3.864-14.7045-14.7128-.4819-.2069-.9636-.4139-1.4454-.6208-15.139,1.8854,5.3637-14.38-6.6273-22.7507,2.4805-11.639,.6236-23.2698,1.7099-35.8237h0c5.0005-20.2499,6.6807-41.2119,8.0115-61.9987h0c.0738-1.2134,.1794-2.3747,.9473-3.3727-.26,.45-.5305,.8946-.7452,1.3619-.019-18.0156-.038-36.0315-.0571-54.0471,.0341,.0715,.0746,.1429,.1119,.2144-3.4118-29.1206,6.9362-56.5806,17.7107-83.1614v.0002c.218-.9126,.1365-1.9351,.8107-2.6602-.1599,.2183-.316,.4373-.4547,.6604,.1411-34.0798,28.7485-64.2755,27.5551-96.0251-6.743-3.6847-14.2997,2.2743-21.031,3.892-9.586,9.6306-11.0348,24.225-13.0431,37.0775h0c-2.4707,16.8666-3.4025,34.5842-13.7588,48.801l-.3663,.2106c-3.3073,10.3251-6.6146,20.65-9.9219,30.975,.1578-.926,.3-1.856,.4394-2.7869-.4716,2.2717-.4877,4.559-.4551,6.8694-2.773,25.6675,.8606,53.7259-.0007,80.9136h0c-.2397,14.0978-2.3604,28.9144-9.9482,41.0096-.8679,.2343-1.6019,.5583-2.2105,.9664,.6086-.4081,1.3426-.7321,2.2105-.9663-14.2363,22.275-16.7302,52.2125-34.8441,72.088m114.1204,487.6494c.1785,.1656,.3776,.3239,.5809,.4805-.2034-.1567-.4025-.3149-.5809-.4805Zm-13.4141-126.4544c-.5384,.8939-.9702,1.8752-.9606,2.9246-.0095-1.0495,.4221-2.0306,.9606-2.9246Zm5.5779-55.2913c-.108-.0383-.2204-.0756-.3247-.1147,.1044,.0391,.2168,.0764,.3247,.1147Zm-218.6859,170.5903c.5084,.5051,.905,1.1107,1.1729,1.7538-.2679-.6431-.6644-1.2487-1.1729-1.7538Zm1.7003,4.9522c-.0095,.2563-.0281,.5134-.0542,.7701,.0261-.2568,.0447-.5139,.0542-.7701Zm-34.1565-46.0912c.2419,.1279,.4506,.2815,.6282,.4592-.1776-.1777-.3862-.3314-.6282-.4592Zm-68.1559-457.2076c.0052-.0531,.0109-.1058,.0161-.1591-.0052,.0532-.0108,.106-.0161,.1591Zm12.6477-5.0231c.4209,.1592,.8738,.3066,1.237,.4868-.3632-.1802-.8162-.3276-1.237-.4868Zm255.6535-17.5482c-.1478,.9117-.3326,1.8187-.5551,2.7212,.6668-2.7016,.9962-5.4641,1.0031-8.2465-.005,1.855-.1517,3.6971-.448,5.5253Zm2.2395-93.0403c.1414,.2438,.2899,.4875,.437,.7313-.1471-.2438-.2956-.4875-.437-.7313Zm98.3135,276.2966c.579,.5858,1.1892,1.1592,1.7891,1.7367-.5999-.5775-1.2102-1.1509-1.7891-1.7367Zm-180.7224,457.0599c18.0231,20.9952-2.7075,28.4591,5.7984,45.0116,16.6201,35.2233-17.2333,68.4489-16.3403,101.8044,6.1875,18.1903,26.9769,22.5977,42.5152,30.1112,31.1392,12.3718,34.418-35.636,48.5758-14.1589,16.5257-18.2561-3.6095-10.3636-1.2476-32.671,3.4928-31.2968,11.0687-64.2709,25.2695-91.1007,6.7374-7.7,29.1256-15.8074,16.9184-27.6633-23.7809-13.55-23.2663-35.6138-9.5039-56.8895-.4965-.2609-.9929-.5219-1.4894-.7827-9.5126,4.2753-13.45,13.8784-19.5455,21.9691-28.3525-23.0912-13.9745,40.0721-16.4868,54.216-1.1132,16.8642-15.5321,26.6564-28.9454,13.1897-14.1335-11.5004-9.542-33.4044-18.2632-49.146-8.5033-27.7242,55.2186-14.753-13.2661-44.3222-25.2974-10.4849-22.3673,37.8029-13.9891,50.4322Zm-25.6059,78.5443c-6.1819-5.3846-8.1221-2.6259-10.872,2.9058,3.1313,8.3562-.3898,30.499,12.3747,23.6035,7.5417-8.0771,25.0399-19.2719,19.7682-31.8032-11.9874,5.3067-9.3801,23.9011-21.2709,5.2939Zm148.6602-1.8483c-17.8836,20.1017,7.4049,52.9926,13.1954,14.7823-1.5678-4.7696-5.4688-26.2747-13.1954-14.7823Z"/>
  <g id="tongue">
    <!-- adding a thick black stroke to the inner red pieces ensures they bring their border along! -->
    <path class="cls-1" stroke="#010101" stroke-width="25" stroke-linejoin="round" d="M797.6678,1732.9246c-9.53,13.41-17.04,31.3-34.03,36.38-8.1,2.5-12.07,.02-16.63-7.17-12.48-35.1899-10.24-74.68-20.11-110.85-21.72-91.89-64.19-177.5-97.36-265.63-8.58-23.16-15.95-46.82-23.06-70.49-2.55-8.77-.66-16.7,6.54-22.54,10.67-8.65,21.6-16.99,32.58-25.24,6.46-4.85,13.21-9.3,19.85-13.9,4.87-3.37,5.74-3.12,8.02,2.07,38.53,88.63,79.7,176.25,112.4,267.27,24.84,65.99,53.1899,146.34,11.8,210.1Z"/>
    <path class="cls-2" stroke="#010101" stroke-width="25" stroke-linejoin="round" d="M696.1278,1782.7846c-9.36,13.22-24.77,25.16-41.55,24.23-35.65-7.6-14.88-43.02-42.97-79.0099-24.95-39.31-54.48-75.47-77.63-115.95-33.26-53.57-25.6-118.6-18.89-178.19-.48-40.9-4.69-82.03-14.42-121.83-2.02-9.27-9.14-17.15-11.75-26.41,26.74,2.19,53.42,10.85,80.04,15.62,13.9,3,22.98,8.72,27.14,22.46,42.99,106.25,87.42,213.34,111.06,325.85,7.58,49.66,15.47,95.41-11.03,133.23Z"/>
  </g>
</svg>