<?xml version="1.0" encoding="UTF-8"?>
<svg id="Layer_1" data-name="Layer 1" xmlns="http://www.w3.org/2000/svg" width="304.6847" height="511.7906" viewBox="0 0 304.6847 511.7906">
  <defs>
    
  </defs>
  <g>
    <path class="cls-2" d="M143.4674,396.4542c.664,3.8119-.0259,7.552-.4643,11.3289-.4549,3.9184-.5083,7.8817-.834,11.8172-.394,4.7634,.0385,9.4714,.7286,14.173,.9809,6.6818,3.2677,12.8948,6.7107,18.6947,.38,.3598,.8328,.6686,1.1263,1.0886,.9886,1.414,1.9262,2.8634,2.8724,4.3065,1.0942,1.6686,2.189,3.3373,3.2483,5.028,.1277,.2036,.0363,.5443,.0466,.8214,1.7474,2.4695,3.5,4.9355,5.2381,7.4117,.3432,.4888,.6309,1.0165,.944,1.5262,.6812,.7808,1.4246,1.5166,2.0311,2.3515,1.3779,1.8975,2.6978,3.8372,4.0123,5.7794,.139,.2057,.0844,.5422,.1194,.8181,1.7334,2.9867,3.6437,5.8888,5.1334,8.9922,.8788,1.8307,1.1211,3.973,1.5946,5.9882,.4202,1.7884,.4717,3.724,1.2014,5.3661,1.6116,3.6262,5.9896,5.144,9.6684,3.5212,2.0605-.9089,4.1651-1.8115,5.6241-3.6814,.2114-.2708,.5992-.4042,.9055-.6011,.6618-.8371,1.3234-1.6743,1.985-2.5114l.0851-.2781c.0694-.1713,.1389-.3425,.2083-.5135,.6523-1.5577,.6169-3.4551,2.245-4.531,1.7082-5.6996,1.9639-11.5567,1.5999-17.4238-.2236-3.6067-.8914-7.1886-1.415-10.7735-.3619-2.4786-.7013-4.9701-1.2609-7.4079-.7644-3.3301-1.7297-6.614-2.6061-9.9184-.7924-2.9871-1.5301-5.9897-2.3847-8.9588-.9855-3.4236-1.9639-6.856-3.1393-10.2167-2.0916-5.9806-4.2818-11.928-6.5213-17.8552-1.6843-4.4574-3.5117-8.8608-5.2699-13.2904-.1145-.2882-.1971-.5893-.2884-.8868h.0165c-1.3047-3.6569-2.6033-7.5087-4.003-11.1292-1.8267-4.7252-3.8934-9.3602-5.6636-14.1053-1.7611-4.7201-5.4503-6.5532-10.0557-7.3701-3.2911-.5837-6.538-1.4092-9.8177-2.061-2.361-.4693-4.7478-.8085-7.1149-1.2502-.9567-.1785-1.8869-.4932-2.8384-.7051-.238-.0531-.5114,.0522-.7687,.0848,.0648,.2802,.0529,.6133,.2059,.833,2.2895,3.2912,3.6153,6.9055,4.135,10.8918,.4703,3.6093,1.4511,7.157,1.8419,10.7711,.498,4.6041,.629,9.2479,.9182,13.8744"></path>
    <path class="cls-2" d="M207.2911,395.2646c-.9363-2.346-1.8531-4.7002-2.8411-7.0244-2.2047-5.1867-4.4241-10.368-6.709-15.5198-3.0425-6.8603-6.1411-13.6959-9.242-20.53-1.025-2.2594-1.0666-2.2497-3.1498-.9185-.8954,.5722-1.7674,1.181-2.6499,1.7733-.4847,.357-.9695,.714-1.4542,1.071l-.0078,.0085c-1.2018,.9528-2.3725,1.9492-3.6179,2.8411-.6798,.4868-1.4863,.7965-2.2356,1.186-1.2888,1.1214-2.5488,2.2778-3.8722,3.3563-2.3597,1.9232-2.9905,4.3776-2.0913,7.1759,1.8536,5.7689,3.7766,11.5164,5.7436,17.2477,1.22,3.5549,2.4549,6.2361,3.7481,9.7658,.1079,0,.3337,.828,.4416,.828,.9527,2.437,1.9039,4.8747,2.8615,7.31,2.0481,5.2087,4.0934,10.4186,6.1543,15.6222,2.1769,5.4962,4.5283,10.9287,6.5142,16.4932,2.1378,5.9901,3.9532,12.0967,5.8788,18.1622,.4816,1.517,.8457,3.0714,1.2639,4.6087,.5391,1.1131,1.315,2.1755,1.5631,3.3506,.3963,1.8778,.4423,3.8303,.6364,5.7511l-.0064-.0026c.3804,.8668,.9484,1.7007,1.1062,2.6067,.4715,2.7091,.8226,5.4418,1.1436,8.1742,.2582,2.1989,.353,4.4172,.6122,6.616,.3868,3.2822,.6437,6.6227,2.8525,9.3438,.1756,.2164,.5037,.405,.777,.4296,2.8378,.257,4.9022-.9803,6.723-3.1356,.7441-.8808,1.0312-2.4673,2.6342-2.4937,.2613-1.4588,.9991-2.6006,2.2394-3.4104-.5006-1.4532,.9019-2.15,1.3188-3.2416,.5163-1.3519,1.4575-2.5417,1.9603-3.897,.7127-1.9213,1.3942-3.8968,1.7209-5.9095,.4103-2.5278,.4257-5.1187,.6592-7.6779,.0783-.859,.3753-1.699,.4385-2.5576,.0579-.7828-.0354-1.5822-.121-2.3679-.0448-.4107-.2569-.8008-.3236-1.2117-.3849-2.3694-.7334-4.7448-1.1251-7.1132-.3664-2.2159-.7185-4.4365-1.1793-6.6333-.2615-1.2462-.754-2.4419-1.0879-3.6752-.0944-.3485,.0033-.7495,.0128-1.1266-.6248-1.9501-1.1932-3.9208-1.8846-5.8469-2.6422-7.3585-5.2264-14.7405-8.0229-22.0399-2.1039-5.4922-5.126-11.9551-7.3824-17.3886"></path>
  </g>
  <g>
    <path class="cls-1" d="M174.4138,507.3032l.0365,.0325c.2797,.4319,.5597,.8634,.8397,1.2948l1.1992,1.1093,.7599,.5364c.1211,.0731,.2423,.1461,.3636,.219,.1935,.1113,.3872,.2225,.5809,.3338,1.2393,.8029,2.5371,1.2775,4.0189,.7185l.0385-.005c.1204,.0069,.241,.0139,.3615,.0207l1.1413-.1192c.591-.0966,1.1823-.193,1.7733-.2894,.5323-.1966,1.0646-.3934,1.5969-.59l2.5919-1.3795c.6214-.396,1.2425-.7918,1.8637-1.1877,.4473-.3687,.8945-.7375,1.3417-1.1062,.402-.2446,.8041-.489,1.2061-.7335,.287-.2728,.5739-.5458,.861-.8187,.2624-.1367,.5246-.2733,.7868-.41,.2535-.1481,.5068-.2961,.7599-.4444,.2115-.1106,.4229-.2216,.6344-.3324,.1942-.1046,.3884-.2091,.5828-.3138,.2749-.1264,.5498-.253,.8246-.3794,.2939-.1543,.588-.3086,.8818-.4629l2.1908-.5138c.2381-.0925,.4763-.1848,.7145-.2773,2.9376-.3728,5.8749-.7455,8.8123-1.1184,1.1103-.3927,2.221-.7853,3.3315-1.1781h.0003c.2007-.2148,.4014-.4295,.602-.6443,.9116-.5306,1.8233-1.061,2.7349-1.5916l.3756-.354c.4504-.5969,.901-1.1937,1.3515-1.7906,1.3676-1.5306,2.7349-3.0614,4.1025-4.5922,.4042-.4319,.8596-.8265,1.2045-1.3016,2.6421-3.6389,4.127-7.8551,5.3-12.0873,1.1035-3.9818,1.5551-8.161,2.0781-12.2808,.2358-1.8572-.0516-3.7812-.1014-5.6747-.0137-.1872-.0272-.3742-.0408-.5612-.5948-3.786-.7878-7.6921-1.8725-11.3315-1.9565-6.5639-4.4118-12.9809-6.7326-19.4327-.8245-2.2922-1.8644-4.5065-2.8059-6.7565-.0899-.2809-.18-.5618-.2701-.8426-.1687-.3806-.3374-.7613-.5061-1.1418-.1509-.3907-.3018-.7815-.4527-1.1721-1.1375-2.7033-2.2751-5.4065-3.4128-8.11l-.1644-.501c-.4624-1.1432-.8944-2.2999-1.3931-3.427-1.0675-2.4121-2.1693-4.809-3.257-7.212-.1781-.4533-.3562-.9069-.5342-1.3605-.132-.4814-.2641-.9627-.3963-1.4441h-1.3974c-.3727,0-1.0249-.0009-1.3974-.0009,.0918,.3583,.421,.7349,.5616,1.0726,2.2357,5.3701,4.6115,10.6856,6.6962,16.1134,2.7709,7.2142,5.3315,14.5098,7.9495,21.7823,.6852,1.9036,1.2482,3.8513,1.8673,5.7785-.0094,.3727-.1062,.769-.0127,1.1134,.3309,1.2189,.8188,2.4006,1.0779,3.6322,.4566,2.1711,.8055,4.3657,1.1685,6.5557,.3881,2.3405,.7334,4.6882,1.1148,7.03,.0661,.4061,.2763,.7916,.3206,1.1975,.0848,.7765,.1773,1.5666,.1199,2.34-.0627,.8486-.3569,1.6789-.4345,2.5279-.2314,2.5293-.2466,5.0899-.6532,7.5879-.3237,1.9893-.999,3.9415-1.7051,5.8405-.4982,1.3395-1.4308,2.5154-1.9423,3.8514-.4131,1.0788-1.8027,1.7675-1.3068,3.2037-1.2292,.8003-1.96,1.9288-2.2189,3.3705-1.5882,.026-1.8728,1.5938-2.6101,2.4645-1.8041,2.13-3.8495,3.3529-6.6614,3.0989-.2708-.0243-.5958-.2107-.7698-.4246-2.1886-2.6892-2.4431-5.9907-2.8264-9.2345-.2569-2.173-.3508-4.3654-.6066-6.5386-.318-2.7005-.6659-5.4012-1.1331-8.0786-.1564-.8954-.7191-1.7195-1.0961-2.5762l.0063,.0026c-.1923-1.8983-.2379-3.828-.6306-5.6838-.2458-1.1614-1.0146-2.2114-1.5488-3.3114-.4143-1.5193-.7752-3.0556-1.2523-4.5548-1.9079-5.9947-3.7067-12.0297-5.8249-17.9497-1.9677-5.4994-4.2976-10.8684-6.4545-16.3003-2.042-5.1428-4.0686-10.2917-6.0979-15.4396-1.1124-2.8218-2.2165-5.647-3.3244-8.4707h-2.7947c.1125,.3511,.2053,.7097,.3405,1.0517,1.7524,4.4296,3.5736,8.8329,5.252,13.2904,2.2319,5.9272,4.4147,11.8746,6.4992,17.855,1.1715,3.3609,2.1467,6.7933,3.1287,10.2167,.8517,2.9692,1.5871,5.9717,2.3767,8.9588,.8735,3.3044,1.8356,6.5884,2.5973,9.9185,.5576,2.4376,.8959,4.9294,1.2568,7.4079,.5218,3.5849,1.1874,7.1666,1.4102,10.7735,.3626,5.8671,.1077,11.724-1.5947,17.4236-1.6224,1.0759-1.5873,2.9734-2.2374,4.5312-.0692,.1709-.1382,.3422-.2076,.5133-.0281,.0928-.0563,.1855-.0846,.2783-.6595,.8371-1.3189,1.6743-1.9783,2.5114-.3052,.197-.6919,.3302-.9024,.601-1.4542,1.8699-3.5517,2.7726-5.605,3.6815-3.6663,1.6226-8.0295,.105-9.6356-3.5212-.7274-1.6423-.7786-3.5779-1.1973-5.3661-.4718-2.0151-.7135-4.1577-1.5894-5.9882-1.4847-3.1033-3.3883-6.0054-5.1161-8.9922-.1776-.0057-.3552-.0111-.5326-.0168,.1774,.0057,.355,.0111,.5326,.0166-.0349-.2757,.0197-.6123-.119-.818-1.3098-1.9423-2.6255-3.8821-3.9987-5.7794-.6042-.8349-1.3451-1.5707-2.024-2.3515-.3122-.5097-.5989-1.0374-.9409-1.5262-1.7322-2.4762-3.4788-4.9422-5.2204-7.4117-.0101-.2773,.0808-.6178-.0462-.8216-1.0559-1.6906-2.147-3.3592-3.2373-5.028-.943-1.4429-1.8776-2.8925-2.8627-4.3063-.2927-.4199-.744-.7289-1.1223-1.0886,.0132,.1608,.0264,.3215,.0394,.4823l-.0396-.4823c-3.4313-5.7999-5.7104-12.0131-6.6879-18.6949-.688-4.7014-1.1191-9.4094-.7262-14.1728,.3244-3.9357,.3776-7.8988,.831-11.8172,.4371-3.7769,1.1247-7.517,.4628-11.3291h-.5588c-.0002,1.0959,.013,2.192,.0154,3.288-.0026-1.0958-.0156-2.192-.0154-3.2878h-1.677c-.2797,3.7341-.5594,7.4682-.839,11.2025l-.0406,.5573c.1591-.1088,.3179-.2175,.477-.3264h.0002c-.1591,.1088-.318,.2177-.4771,.3266-.4528,1.8899-.8774,3.7876-1.3703,5.667-.2509,.9572-.3833,2.0948-.9873,2.782-1.9243,2.1896-4.0095,4.2429-6.1084,6.2702-.7279,.703-1.1697,1.3897-1.0072,2.4085,.4448,2.786-1.3936,4.5769-3.1104,6.1286-1.9601,1.7714-4.6903,2.0048-7.2398,2.482-2.4828,.4645-4.941,1.0619-7.411,1.5959-1.1122,.2403-2.2186,.5852-3.3433,.6691-1.1393,.0848-2.055,.355-2.6521,1.4525,.191,.2338,.323,.5597,.5424,.6371,1.4522,.5128,1.098,1.5835,.4756,2.2936-.6823,.7784-1.7022,1.283-2.6272,1.8159-.5768,.3324-1.5251,.3156-1.8243,.7728-.6753,1.031-1.5789,1.1201-2.5961,1.143-5.7335,.1295-10.489-2.1478-14.4473-6.13-2.7392-2.7557-4.3193-6.1961-4.2537-10.0985,.0849-5.0489-1.4862-9.439-4.3733-13.4728-1.7264-2.4119-2.4284-5.1185-1.5351-7.992,.5159-1.6591,.7882-3.6087,3.0823-4.1337,.6849-.1569,1.7923-1.4085,1.6779-1.6339-.6327-1.2448,.0551-1.4126,.9495-1.7212,.7293-.2516,1.4445-.6273,2.0663-1.0839,.5563-.4086,1.4078-1.0461,1.9655-1.569l.0577,.0002c.3081-.3083,.4927-.6404,.6224-.8798,.3934-.7263,1.0672-1.3746,1.2321-2.1393,1.4047-6.5139,2.6226-12.94-.814-19.3846-1.4157-2.6548-1.6544-5.9248-2.5325-8.8843-.1954-.6583-.752-1.2703-1.2775-1.7582-1.0817-1.0045-2.3263-.4539-3.5586-.2605-3.1522,.4951-6.1911-.1624-9.1701-1.1307-1.9336-.6287-3.9105-1.1867-5.7484-2.0348-4.7706-2.202-8.5181-5.8088-12.3601-9.2744-1.2624-1.1387-2.6594-2.134-3.8739-3.3185-1.3626-1.329-3.1261-2.5904-3.7682-4.2471-1.6599-4.2823-3.239-8.6892-4.0278-13.1899-.8735-4.9838-.9945-10.1223-1.1506-15.2023-.1851-6.026,.0332-12.0638-.1115-18.092-.0584-2.4327-.3948-4.9093-.9957-7.2667-.9435-3.7005-2.3198-7.2891-3.3268-10.9759-1.2297-4.501-2.588-8.9668-2.3416-13.7695,.1413-2.7541-.3567-5.541-.5671-8.3131-.3598-1.811-.9887-3.6156-1.0319-5.4341-.1632-6.8681-.175-13.7407-.1656-20.6114,.0058-4.1373,.2953-8.2775,.2062-12.411-.1177-5.456-.1228-10.9328-1.8065-16.2444-.6633-2.0924-.0495-4.0734,1.3828-5.8292,3.1487-3.8605,5.2113-8.3552,7.353-12.8042,1.0171-2.1127,2.1533-4.1703,3.303-6.2151,.1726-.3071,.7152-.4069,1.0867-.6025,.1346,.3588,.3679,.7142,.3802,1.0771,.0173,.4998-.0497,1.0358-.223,1.5037-2.2295,6.0166-3.1265,12.3044-3.7218,18.637-.224,2.3833-.2492,4.8181-.0197,7.1961,.1017,1.0538,.8404,2.5549,1.6846,2.9055,1.172,.4866,1.8313-.9894,2.4876-1.9237,.4497-.6402,.9332-1.2722,1.49-1.8183,.6602-.6477,1.422-.6154,1.8281,.2523,.6238,1.3328,1.1828,2.7075,1.6239,4.1099,.405,1.2872,.0267,2.3702-.9885,3.3882-.6959,.6977-1.2782,1.7277-1.4491,2.6908-.8716,4.9104-1.2312,9.9557-.2514,14.795,1.2645,6.2456,1.2091,12.7508,3.6166,18.7653,.478,1.1942,1.0838,2.3381,1.5436,3.5385,.3436,.8966,.8598,1.2948,1.7966,.9548,1.0225-.3708,1.9531-1.01,1.614-2.1878-.347-1.2054,.1307-1.9125,.844-2.7065,.906-1.0084,1.9314-1.9398,1.4244-3.6213-.132-.4379,.6811-1.16,1.0601-1.7514,.44,.324,.8993,.6258,1.3124,.9812,.2328,.2002,.3889,.489,.7239,.926,1.292-1.5642,2.5032-3.0311,3.8134-4.6175,.3055,.4086,.4862,.5994,.608,.8224,.4958,.9074,1.3847,1.1487,2.1278,.4655,.3913-.3598,.77-.8666,.8854-1.3686,.4348-1.8909,1.4266-3.2373,3.0792-4.3445,3.7802-2.5329,7.3562-5.3712,11.1554-7.8734,2.3705-1.5613,4.9676-2.7944,7.5212-4.0575,1.1185-.5532,1.606-1.1864,1.0985-2.3768-.3631-.8519-.4163-1.7992,.4239-2.2235,.6518-.3292,1.5673-.2053,2.3583-.1596,.3228,.0185,.6147,.3857,.9416,.5535,1.1644,.5979,1.7505,.2949,2.1475-.9358,.2949-.9142,.6604-1.8274,1.149-2.6495,.287-.483,.8354-1.0505,1.3362-1.1278,2.8793-.4432,4.7204-2.4542,6.5864-4.3296,1.0315-1.0368,1.6717-2.462,2.4868-3.7131,.0247-.0378,.0575-.0969,.0444-.1291-.813-2.0014,.8646-3.1729,1.5159-4.7069,1.0485-2.4693,1.8545-5.0409,2.8865-7.5179,.4163-.9995,1.2377-1.8231,1.737-2.7973,1.5712-3.0658,2.8601-6.1812,2.6216-9.7836-.1928-2.911-.0577-5.845-.0348-8.7685,.019-2.4058,.1106-4.811,.1165-7.2168,.0015-.5928-.1076-1.2266-.3348-1.7714-.6902-1.6548-.936-3.177,.5592-4.5925,.2483-.2353,.2367-1.0541,.0223-1.4088-.664-1.0997-.3879-2.0682-.0005-3.164,.5962-1.6863,1.0096-3.4368,1.5181-5.1549,.1418-.4794,.2067-1.1706,.5431-1.3727,2.1497-1.2908,2.4318-3.532,2.848-5.6098,.936-4.6725,1.5236-9.4186,2.5639-14.0652,.9909-4.4271,2.2321-4.8124,6.3216-5.6842,1.0898-.2322,1.7493,.3175,1.4397,1.3563-.6039,2.0251-1.2571,4.0641-2.1718,5.9621-2.4008,4.9818-4.3356,10.0819-5.388,15.5451-.6089,3.1607-1.5782,6.2858-2.7118,9.3047-1.8843,5.0183-3.6382,9.9578-3.1821,15.5052,.4023,4.895,.3955,9.837,.309,14.7537-.0617,3.5132-.4461,7.0324-.8818,10.5245-.4984,3.9938-1.2508,7.9553-1.8096,11.9424-.1601,1.1423-.39,2.3059,.5979,3.4075,.3482,.3881-.0034,1.5815-.2845,2.3118-.4741,1.2314-.8784,2.2604,.3965,3.3573,.4333,.3728,.4265,1.4253,.3681,2.1468-.0498,.6142-.5611,1.1792-.6869,1.8026-.1284,.6357-.173,1.365,.0363,1.9497,.0711,.1982,1.0278,.0802,1.7293,.1139,.1916,.4874,.2708,1.2992,.7186,1.6931,.802,.7053,1.8337,1.1466,2.7526,1.7252,.2802,.1764,.6697,.4179,.7054,.672,.032,.2288-.3002,.5945-.5606,.7645-1.9997,1.3071-4.014,2.5925-6.0397,3.8591-.6476,.405-.7657,1.0046-.1528,1.3059,3.7684,1.8526,7.489,3.8627,11.4123,5.3188,2.5579,.9493,4.7807-.7178,6.7654-2.3493,.9218-.7577,1.9041-1.4573,2.9244-2.0759,1.246-.7558,2.5188-.4682,3.4274,.5296,1.485,1.6306,2.8261,3.395,4.184,5.137,.6892,.8841,.4285,1.7608-.5052,2.2001-1.4219,.6691-1.44,1.8805-1.2569,3.0444,.3641,2.3145,1.6969,4.1919,3.3227,5.7783,1.4662,1.4309,2.3124,3.0503,2.4998,5.0611,.0461,.4948,.1826,.981,.2775,1.4712h.2795c.2675,.4655,.4242,1.0881,.8226,1.3684,1.5318,1.0785,3.1696,2.0062,4.711,3.0722,.9776,.676,1.8802,1.3778,1.6776,2.8954-.1964,1.471,1.0019,2.2746,2.4573,1.9646,.3939-.0839,.9365,.0026,1.2427,.2333,.1827,.1379,.1423,.7476,.0168,1.074-.174,.4523-.4684,.8894-.8058,1.2427-1.1547,1.2086-1.037,1.7339,.5749,2.3075,2.6718,.9505,5.3209,1.9711,8.0211,2.8327,2.1227,.6774,4.2114,2.2278,6.5686,.6126,.0663-.0454,.1928-.0517,.2716-.0228,1.0064,.3699,2.0143-.0219,2.972,.0002,3.3167,.0762,6.671,.3211,9.9238,.9507,4.6963,.9093,8.6371,3.6165,12.5726,6.1654,1.8596,1.2045,3.1695,2.8768,3.2583,5.3868,.1636,4.6127-.5398,9.0399-2.2323,13.312-.5542,1.3987-1.3153,2.6897-2.6577,3.5423-.8272,.5254-.7628,1.2561-.6236,2.1867,.217,1.4506,.3958,3.0413,.0185,4.4163-.6419,2.3386-1.6913,4.5718-2.656,6.8123-.2292,.5325-.7508,.9807-1.2256,1.358-.9822,.7805-2.1607,1.309-1.6407,3.0201,.1853,.6097-.3235,1.4984-.6661,2.1848-.6743,1.352-1.5191,2.6202-2.1735,3.9806-.874,1.8168-1.3718,3.8715-2.5077,5.491-1.4924,2.1282-3.4647,3.9182-5.1899,5.8892-.291,.3324-.5511,.8546-.5251,1.2701,.0824,1.3102-.5977,2.2987-1.899,2.1919-3.0985-.2545-6.4107,3.0271-6.1348,6.0498,.0517,.5671-.2358,1.1644-.3641,1.7483-.1776,.8094-.5683,.849-1.3227,.5792-.5434-.1942-1.37-.1976-1.8317,.0923-1.3086,.8219-2.5102,1.8188-3.7254,2.7826-2.1297,1.6889-3.2111,1.7755-5.5454,.4163-.224-.1303-.5568-.2365-.7856-.1702-1.5229,.4412-2.6771-.3408-3.8852-1.05-1.9259-1.1307-3.7341-2.5758-6.2348-2.1948-.3545,.0539-1.0166-.4962-1.1857-.9096-.4489-1.0971-1.1023-.8729-1.9036-.5475-.7601,.3085-1.5385,.7195-2.3306,.7752-2.7224,.192-5.2514-.5888-7.5674-1.9678-.6988-.416-1.5181-1.0117-.9173-2.129,.111-.2062,.0844-.5719-.0221-.7959-1.2747-2.681-2.2705-5.5638-3.9568-7.9606-1.7164-2.4397-2.8398-4.8926-2.4284-7.7955,.6739-4.7574,1.4496-9.5087,2.4181-14.2142,1.1173-5.4278,2.3246-10.8124,2.1143-16.4159-.2982-7.939-3.6449-14.1017-10.5187-18.1715-5.5809-3.3042-11.7674-4.659-18.1787-4.8855-6.0003-.2119-11.9564-.4929-17.6533-2.6687-.7565-.2889-1.6366-.3391-2.4614-.3504-3.0511-.0416-5.401,2.4452-5.3462,5.4434,.0087,.471-.5289,1.3122-.9069,1.3693-2.0072,.3033-3.4933,1.4763-4.8306,2.7908-1.4648,1.4402-2.7749,3.0485-4.0582,4.6586-1.7651,2.2143-3.4103,4.5238-5.1657,6.7462-1.5887,2.0113-3.0735,4.1571-4.9383,5.884-2.0355,1.8848-4.4649,3.3429-6.7049,5.0109-3.5971,2.6788-4.2085,5.1938-2.1881,8.8327,1.3191,2.376,3.0352,4.5353,4.6091,6.7664,1.2109,1.7164,2.118,3.507,2.0881,5.6898-.0082,.6006,.1838,1.3211,.5415,1.7911,2.8588,3.756,5.7696,7.4729,8.6856,11.1851,1.334,1.6984,2.7904,3.3063,4.0468,5.0585,.7382,1.0293,1.0437,2.2557,.3884,3.5442-.8079,1.5882-.198,3.443,1.2528,4.4702,.7284,.5157,1.3307,1.2333,1.9144,1.9233,1.6738,1.9783,3.3335,4.0123,6.0834,4.4551,4.8175,.7757,9.6644,.8913,14.5348,.5167,3.216-.2471,6.4506-.5429,9.6661-.4485,6.5929,.1937,13.1806,.6017,19.7663,.9903,2.8173,.1663,5.5105,1.2936,7.2869,3.2714,2.1321,2.3737,3.6372,5.3406,5.2274,8.1555,.8969,1.588,1.4188,3.3873,2.1097,5.0914l.2543,.8363,.1536,.5511c.1267,.1413,.2533,.2828,.3806,.4234,.1069,1.1646,.2132,2.3297,.3198,3.495h-.0002l.3401,1.9468c.2706,1.6743,.5412,3.3488,.8118,5.0231l.223,.8426,.0611,3.9028c-.0014,.2775-.0026,.5547-.0039,.8322l-.0344,3.072h2.2359c-.2881-4.6268-.4187-9.2703-.9149-13.8746-.3896-3.6139-1.367-7.1617-1.8358-10.7709-.5177-3.9866-1.8392-7.6008-4.121-10.892-.1523-.2196-.1406-.5527-.205-.833,.2562-.0325,.5289-.1377,.7661-.0848,.9481,.2119,1.8754,.5266,2.8288,.7051,2.3588,.4417,4.7376,.7811,7.0908,1.2504,3.2686,.6518,6.5045,1.4772,9.7843,2.061,4.5898,.8168,8.2667,2.65,10.0216,7.3701,1.7644,4.7451,3.824,9.3801,5.6446,14.1053,1.395,3.6206,2.6193,7.3066,3.9198,10.9634,.8383,0,1.9564,.0009,2.7947,.0009-1.2814-3.4885-2.9016-6.9573-4.1104-10.4707-1.949-5.6643-3.8543-11.3445-5.691-17.046-.8909-2.7656-.266-5.1912,2.0721-7.092,1.3112-1.066,2.5597-2.2088,3.8367-3.3169l.0005-.0003c.7423-.3852,1.5412-.6911,2.2146-1.1721,1.234-.8813,2.394-1.8661,3.5849-2.8076l.0075-.0086c.4802-.3528,.9605-.7056,1.4409-1.0586,.8745-.5852,1.7385-1.1869,2.6257-1.7524,2.0641-1.3157,2.1054-1.3253,3.121,.9077,3.0725,6.7542,6.1428,13.5098,9.1574,20.2899,2.264,5.0914,4.463,10.2121,6.6475,15.3383,1.1547,2.7091,2.2165,5.4576,3.3203,8.1884h2.7947c-.9358-2.1085-1.875-4.2154-2.8065-6.3259-1.4484-3.282-2.8917-6.5662-4.337-9.8495l-.2775-.5616c-.1185-.2269-.2369-.4539-.3554-.6806-.23-.6133-.46-1.2268-.69-1.8403l-.1726-.2983,.0051,.0012c-.3405-.7544-.6811-1.509-1.0216-2.2636l-.7347-1.9021c-.0712-.1057-.1423-.2113-.2134-.3168-.5938-1.3867-1.1764-2.7785-1.7971-4.1529-.0678-.1504-.3552-.2021-.5407-.2995h-.0005l.0084-.043c-.1269-.5332-.2552-1.0642-.3835-1.5952-.1065-.242-.2129-.4838-.3192-.7258-.1307-.3641-.2614-.7281-.392-1.0922-.2692-.6022-.5385-1.2042-.8077-1.8063-.0735-.1951-.1469-.3901-.2204-.585-.0558-.7397-.1115-1.4794-.1672-2.2191l-.0452-1.4251c-.0187-.0726-.0173-.1447,.0046-.2167l.2053-.3009c.0531-.198,.106-.396,.1591-.594,.1233-.6414,.2466-1.2828,.3701-1.9242,.3831-.8902,.7419-1.7918,1.1535-2.6687,1.6582-3.5325,3.3811-7.0358,4.9862-10.5921,1.3229-2.9307,2.3926-5.9787,3.787-8.8726,3.092-6.4177,7.101-12.2859,11.1585-18.1224,4.0189-5.7813,8.1031-11.5248,11.896-17.4525,2.8889-4.5149,5.362-9.2948,8.0291-13.9517,3.512-6.1318,5.3331-12.8835,7.0767-19.6394,.6488-2.514,.7484-5.1692,1.0985-7.7601-.169-3.2758-.4549-6.5516-.46-9.8278-.0029-1.7815,.4323-3.5704,.7375-5.3442,1.0968-6.3773,2.8071-12.6001,5.7294-18.3767,1.7344-3.4282,4.0093-6.589,6.1051-9.8288,3.384-5.2317,5.0051-11.079,6.273-17.0913,1.769-8.3886,3.7982-16.6794,7.7702-24.4102,4.1988-8.1725,9.0881-15.9022,14.1425-23.5501,3.5452-5.3644,7.0884-10.7336,10.4704-16.2008,2.1795-3.5236,4.1359-7.192,6.0478-10.8701,.7376-1.4191,1.0761-3.0451,1.5964-4.5767,1.7719-7.3732,1.304-14.8693,1.0358-22.3228-.2425-6.74-1.9905-13.263-3.6129-19.7854-1.1896-4.7824-2.0221-9.6461-2.0257-14.5729-.0041-5.4752,.3107-10.9506,.4955-16.4256,.014-.416,.0966-.83,.1504-1.2444,.4951-3.8098,1.3136-7.6124,1.401-11.4315,.0978-4.2844-.4908-8.5825-.733-12.8773-.2125-3.7672-1.2223-7.3002-3.1607-10.5226-1.1324-1.8824-2.384-3.7161-3.7759-5.4136-1.3549-1.6522-3.0448-2.0228-4.8508-.9122-1.6181,.9952-3.3193,2.1996-4.3457,3.7365-2.0139,3.0157-3.6725,6.282-5.3204,9.5246-4.0486,7.9658-7.9423,16.0035-13.0763,23.3744-2.8927,4.1532-6.1197,7.9769-9.9322,11.2844-2.9564,2.5645-5.8838,5.2149-9.1148,7.398-3.8744,2.6181-8.1252,4.6733-12.0902,7.1671-5.0729,3.1907-10.6771,5.2385-16.0488,7.7859-4.1779,1.981-8.4266,3.8285-12.5112,5.9856-2.6301,1.3888-5.0455,3.1939-7.5114,4.8792-3.0866,2.1093-5.6499,4.7937-7.5468,7.9767-2.383,3.9984-4.4608,8.1771-6.7063,12.2582-2.1866,3.9744-5.2661,6.9012-9.7975,8.0269-2.0271,.5037-4.06,.9916-6.106,1.4104-9.3347,1.911-18.816,2.2823-28.2834,2.1341-11.9451-.1869-23.8819-.876-35.8253-1.2508-2.0549-.0644-3.3866-1.0411-4.1859-2.651-1.6769-3.3774-3.2441-6.8174-4.6764-10.3054-1.7497-4.2604-3.3907-8.4856-6.2599-12.2474-3.1631-4.147-5.7931-8.7106-8.5174-13.1764-2.5933-4.2512-5.1996-8.5142-8.6378-12.1159-8.3345-8.7315-16.8089-17.3303-25.2594-25.9509-4.1827-4.2669-8.2965-8.4489-10.4859-14.2985-1.9329-5.164-4.5978-10.0674-7.8949-14.5787-1.3806-1.8892-2.8713-3.5921-4.9542-4.6882-2.7531-1.4486-6.7114-.888-8.0843,1.4563-1.4837,2.5337-2.91,5.2137-3.7011,8.0158-1.7,6.0212-1.2146,12.239-.7943,18.396,.3436,5.0299,1.277,10.0073,.8293,15.1017-.3917,4.456-1.5239,8.6697-3.4192,12.6797-1.4988,3.171-3.2976,6.2041-4.7276,9.4035C.426,73.8508-.4286,80.6706,.1897,87.7362c.4033,4.6091,.5395,9.2414,.8008,13.863,.274,4.8484,.5549,9.6964,.8327,14.5446h-.2795c.0445,1.618,.0159,3.2419,.1516,4.8521,.1711,2.0304,.2727,4.1005,.7645,6.0635,1.1341,4.5261,.293,9.0492,.3198,13.5754,.0235,3.9759,.0658,7.9774,.5277,11.9176,.4059,3.4628,1.8435,6.7051,4.1248,9.3945,3.3417,3.9396,6.7457,7.8395,10.3409,11.5459,1.489,1.5352,2.0454,3.1379,2.2169,5.143,.5364,6.2788,1.1523,12.5848,3.4584,18.5015,1.8716,4.802,3.3179,9.6899,3.5861,14.8063,.2978,5.6794,.2122,11.3808,.2197,17.0728,.006,4.4563-.218,8.9153-.1223,13.3684,.0873,4.0677,.4614,8.1295,.7238,12.193,.0356,.5504,.1574,1.0954,.2393,1.6428,.3287,2.9394,.3951,5.9375,1.0401,8.806,1.3986,6.2204,2.9095,12.4286,4.7213,18.5394,1.6099,5.4295,2.4085,10.9388,2.5584,16.5471,.1747,6.5287,.0846,13.064,.2165,19.5944,.0473,2.3443,.2208,4.7179,.6623,7.0157,.8546,4.4488,1.918,8.8586,2.9376,13.2747,.7382,3.1975,2.2134,6.0085,4.5242,8.3806,3.0153,3.0955,5.9381,6.2822,9.0023,9.3278,1.8582,1.8473,3.6932,3.8686,5.9157,5.1693,5.1164,2.9942,9.4003,6.9049,13.5268,11.054,.1951,.1963,.383,.4157,.6155,.5559,1.9872,1.1982,3.0422,3.1475,3.9665,5.1277,1.0298,2.2059,.7746,4.5654,.1697,6.828-.8743,3.2708-1.9043,6.5006-2.8706,9.7466h-.0128c-.0031,.2081-.2536,.5445-.3168,.7322-.8608,2.5524-1.8202,5.0748-2.5801,7.6563-.4953,1.6829-1.1576,3.5055-.9521,5.1671,.4419,3.575,.8973,7.2925,2.2489,10.5793,2.4517,5.9616,5.4399,11.7156,8.4455,17.4289,1.6364,3.1105,3.4716,6.2159,5.7503,8.8627,3.0216,3.5096,7.1267,5.6031,11.6173,6.7986,1.6837,.4482,3.3899,.9906,5.1096,1.0946,8.3693,.5059,16.3117-1.1963,23.731-5.121,2.8341-1.4993,5.5449-3.2323,8.3174-4.8494,2.2972-1.3398,4.1121-.2584,5.716,1.9146,.6217,.8423,1.2854,1.6537,1.9298,2.4792,.1223,.2745,.2446,.5487,.3669,.8233l.799,1.4309,.3001,.5352,.483,1.1463c.1028,.1834,.2055,.367,.3083,.5506,.2136,.4693,.427,.9385,.6404,1.4078,.1507,.2874,.3014,.5746,.452,.8618,.1437,.2787,.2874,.5571,.4311,.8358h.0002c.3393,.5486,.6782,1.097,1.0175,1.6455,.1887,.2809,.3773,.5618,.566,.8426,.1594,.297,.3191,.5938,.4785,.8908l-.0123-.0127c.1762,.2444,.3525,.4888,.5287,.7334,.1308,.2105,.2619,.4206,.3929,.6309l1.0178,1.5799c.8529,1.2528,1.7058,2.5056,2.5587,3.7586,.1555,.2576,.311,.5153,.4664,.7733,.2403,.2951,.4806,.59,.7209,.8851,.1644,.3016,.3287,.6034,.4929,.905,.075,.0767,.1499,.1533,.2247,.23,.2105,.3619,.421,.7236,.6315,1.0855l1.041,1.4803-.0363,.098,.1165,.0283c.5493,.6926,1.0983,1.3852,1.6474,2.0778,.2071,.2912,.4143,.5823,.6214,.8735l2.0449,2.7324c.3266,.4831,.6534,.9661,.98,1.4493,.0303,.1062,.0608,.2122,.0911,.3184,.3168,.4213,.6335,.8425,.9505,1.2636,.4792,.7777,.9586,1.5551,1.438,2.3325,.2213,.4612,.4426,.9226,.6637,1.3838,.1432,.1964,.2862,.3931,.4292,.5895-.0128,.0327-.044,.0721-.0349,.0966,.0209,.0562,.0615,.1048,.094,.1565,.1964,.3478,.3929,.6955,.5893,1.0434l.0478,.0504c.1526,.3112,.3052,.6224,.4578,.9334,.1022,.2578,.2045,.5153,.3069,.7729,.324,.9493,.6481,1.8987,.9721,2.8478,.1231,.3549,.2465,.7096,.3696,1.0642,.2083,.4686,.4163,.9372,.6246,1.4058,.0055,.2816,.0111,.5631,.0168,.8447,.1387,1.1182,.2775,2.2364,.4162,3.3544,.1547,.9356,.3091,1.8713,.4638,2.8069,.1338,.5571,.2677,1.1143,.4014,1.6714,.0882,.2658,.1762,.5316,.2646,.7972,.076,.2959,.1524,.5917,.2288,.8873,.206,.4485,.4119,.8973,.6181,1.3456,.5465,.7094,1.0932,1.4188,1.6399,2.128m25.207-50.119l.0002,.0002c-.0339,.0774-.0671,.1548-.1005,.2322,.0334-.0776,.0668-.155,.1004-.2324Zm-31.4871,23.669c.1815,.1903,.3631,.3806,.5448,.5708-.1815-.1903-.3634-.3806-.545-.5708h.0002Zm-3.3447-5.0717c.1803,.2018,.3609,.4033,.5415,.6051-.1805-.2018-.361-.4033-.5417-.6049-.1956-.3579-.3912-.7157-.5869-1.0735,.1958,.3578,.3913,.7156,.5871,1.0733Zm-3.9348-5.0003c.7433,.9327,1.5058,1.8498,2.2607,2.773-.7551-.9231-1.5174-1.8403-2.2607-2.7728-.2242-.2814-.3886-.6095-.591-.9093,.2024,.2995,.3669,.6279,.591,.9091Zm-4.4567-7.2877v.0002l-.0039-.0014,.0039,.0012Zm-.533-.5905l.1586,.1778-.1588-.1778h.0002Zm-4.4695-6.7198l.0007,.0003-.0034-.0002,.0027-.0002Zm-1.6678-2.8286v.0005c-.281-.3239-.5926-.6327-.8978-.9445,.3052,.3117,.6166,.6203,.8978,.944Zm-6.8037-16.6114c-.0176,.6979,.0548,1.3703,.1853,2.0257-.1305-.6554-.203-1.3277-.1853-2.0256,.0092-.3627-.043-.7267-.1225-1.0915,.0795,.3648,.1317,.7287,.1225,1.0913Zm-2.6478-16.8464c.0771,.0344,.1711,.111,.2262,.0891-.055,.0219-.1493-.0551-.2264-.0889l.0002-.0002ZM46.1825,159.1305c-1.9293,1.4816-4.0147,2.7589-5.9779,4.1988-2.1163,1.5525-4.1249,.7364-6.1145-.1845-2.9766-1.3778-6.0356-2.4974-9.3559-2.295-1.7795,.1086-3.5262,.6842-5.2993,.9802-3.8148,.6369-7.5796,.2408-10.0756-2.873-1.4517-1.8111-2.3441-4.4077-2.6082-6.7498-.4011-3.5563-.1553-7.2053,.0504-10.8016,.1069-1.8689,.9423-3.6973,1.0401-5.5653,.11-2.0999-.0836-4.25-.4326-6.3302-.3975-2.3696-1.2393-4.6643-1.6519-7.0325-.3627-2.0819-.3994-4.2203-.5799-6.3339-.1064-3.0538-.2622-6.107-.309-9.1617-.1029-6.7256-.372-13.4595-.1442-20.1755,.1545-4.556,1.0295-9.0884,1.6022-13.629,.1274-1.0093,.3913-2.0023,.5006-3.0127,.379-3.5015,1.9988-6.5304,3.7233-9.4804,1.5075-2.5786,3.2542-5.0183,4.9059-7.5122,1.4832-2.2395,2.0103-4.7924,2.2722-7.3812,.3725-3.6848,.5474-7.3889,.8603-11.0804,.1987-2.3448,.5052-4.6805,.7442-7.0223,.2007-1.9665,1.2216-2.9687,3.4126-1.7632,1.8808,1.035,3.4015,2.8261,4.8749,4.4675,1.4993,1.6705,2.6747,3.6266,4.1219,5.3488,1.7812,2.1199,3.6949,4.1287,5.5543,6.1831,2.359,2.606,4.6809,5.2471,7.0932,7.8029,2.2259,2.3583,4.7855,4.2957,7.5946,5.957,1.8856,1.1151,3.6743,2.462,5.2993,3.933,3.4311,3.1061,6.9005,6.2029,10.0182,9.6099,2.1812,2.3837,3.7651,5.3046,5.6886,7.9325,2.754,3.7625,2.5659,8.3246,3.5591,12.5692,.8711,3.7223-.1077,7.2166-1.0269,10.7745-.6095,2.3595-.7443,4.8372-1.2011,7.2411-.5342,2.8115-1.1874,5.6006-1.7889,8.3992-1.7163,4.9381-3.2028,9.9718-5.2159,14.7861-1.8622,4.4533-4.1787,8.7311-6.4973,12.976-2.1139,3.8704-5.0743,7.1199-8.3792,10.029-2.0345,1.7909-4.1085,3.5454-6.2576,5.1957Zm13.3803,42.3814c-.5198-.1992-1.2014-.2554-1.5287-.6246-.9384-1.0584-1.5556-1.2047-2.6156-.3165-.3542,.2966-.6407,.6801-1.0137,.9459-.3864,.2754-.8402,.4563-1.2646,.6784-.2153-.478-.4475-.9497-.6357-1.4381-.062-.1608-.0098-.3655-.0098-.5499-.0877-1.8409,1.6231-4.5769,3.3145-5.2014,.9904-.3657,1.987-.3078,2.4953,.7967,.6453,1.402,1.2497,2.8314,1.7257,4.2962,.1237,.3806-.2968,.9373-.4674,1.4133Zm-11.0451-17.6454c-.7233-.1516-1.2311-.796-.5037-1.2415,2.1643-1.3253,4.4772-2.3563,7.4052-1.9391-.3919,.7284-.6948,1.2919-1.0809,2.0095,1.0228,.272,1.929,.5131,2.835,.7543l-.0766,.4104c-2.8523,.3555-5.71,.6082-8.5791,.0065Zm22.466,27.3068c-1.1889,1.4066-2.4772,2.7368-3.7963,4.0242-1.1516,1.1238-2.6027,1.5142-4.0945,.8389-1.9389-.8776-3.6447-.5703-5.3908,.4986-1.4066,.8611-2.9799,1.6229-4.4497,.2112-.6935-.6661-1.2684-1.5965-1.5536-2.5135-.4938-1.588,.2093-1.9829,1.8404-2.0235,1.9072-.0474,3.8583-.4056,5.6889-.9617,2.5565-.7769,5.0452-1.7841,7.0781-3.666,.7005-.6484,1.6085-.9516,1.9843,.5631,3.3931-2.2292,3.6202-5.3793,3.331-8.6484-.2487-2.8129-.6784-5.6098-1.0177-8.415-.0373-.31-.005-.6284-.005-.9457,1.2177,.0781,4.1063,2.2213,4.3834,3.2219,.0241,.0875,.0516,.199,.0188,.2737-1.0079,2.2969,.4177,4.4678,.3597,6.7551-.1076,4.231-1.7509,7.6797-4.3772,10.7872Zm20.1409-40.9631c-2.526,3.266-5.1227,6.478-7.7193,9.6887-.1925,.2382-.6306,.2785-.9545,.4107-.1353-.4071-.4446-.8462-.3761-1.2155,.3122-1.6823,.762-3.3388,1.1014-5.0169,.2894-1.4311,.0425-1.7044-1.3443-1.5897-1.7366,.1437-3.4632,.3759-4.4382-1.64-.0973-.2012-1.1028-.2768-1.3338-.0509-1.5431,1.5101-3.1958,1.1016-4.9054,.4677-2.8386-1.0528-4.7749-3.0689-6.0859-5.7263-.2177-.4408-.3054-.9769-.3287-1.4749-.0356-.7568,.3228-1.0855,1.0214-.5856,.633,.4532,1.1954,1.0036,1.8221,1.4664,.6638,.4902,1.2831,1.4039,2.247,.5354,.9207-.8296,.1978-1.6902-.2024-2.3599-.5852-.979-1.5465-1.7372-2.1098-2.7245-.3574-.6265-.6258-1.6877-.3304-2.2203,.5898-1.0632,1.1379-1.9718,.1418-3.3733,2.1369-.0877,3.1948-1.0012,4.0575-2.6219,.6047-1.136,1.9398-1.9702,3.0967-2.7072,1.6255-1.0355,3.3191-2.0336,5.1085-2.7267,2.7464-1.0637,5.2541,.2059,7.764,1.2091,5.9606,2.3828,6.8577,7.5643,7.2773,13.0125,.2788,3.619-1.4109,6.5307-3.5089,9.2431Zm76.0338-1.7726c-.1235,.2711-1.0249,.4956-1.3259,.323-.9483-.5439-1.6556-.2876-2.109,.5104-.5789,1.0195-1.2715,.9569-2.0622,.429-1.2511-.8349-2.0554-.7895-3.2429,.2247-2.2444,1.9166-4.492,3.8302-6.7703,5.7061-.254,.2091-.8233,.3513-1.0656,.2117-3.0225-1.7401-4.8455-4.2986-5.7105-7.7323-.988-3.9215,.8402-6.8582,3.0078-9.6353,1.8377-2.3546,3.9604-4.5016,6.0796-6.6177,1.1191-1.1175,2.5633-1.776,4.2531-1.7068,2.2551,.0925,4.5204,.0385,6.7647,.2351,.8127,.0711,1.5635,.719,2.3683,1.0391,.9051,.36,1.9024,.5337,2.7432,.9987,.8133,.4497,1.6472,1.0495,2.1674,1.7954,.6983,1.0014,1.1459,2.189,1.6203,3.3301,.3343,.8044-.0027,1.3763-.8865,1.4914-1.2372,.1612-2.4796,.2947-3.724,.386-1.4448,.1062-2.1206,.67-2.2679,1.9449-.1404,1.2153,.2415,1.9865,1.6032,1.9149,.4242,2.0197-.7109,3.5444-1.4426,5.1517Zm3.1164,13.8664c-.4593-.0492-.874-.515-1.309-.7902,.322-.3374,.5828-.7991,.9759-.9915,2.3044-1.1276,4.6418-2.2205,7.3024-1.2328,.9516,.3533,1.9536,.6669,2.7822,1.2222,.608,.4073,.9709,1.1792,1.7098,2.1331-.703,.194-1.2377,.5206-1.4588,.3746-1.873-1.2386-3.9038-.3828-5.8493-.5254-1.3819-.1016-2.7779-.0426-4.1532-.1899Zm10.7899,17.334c-.4347,.1718-1.1353,.1867-1.4993-.0615-2.2076-1.5049-2.2763-1.5047-3.989,.5979-.2833,.3478-.8123,.4963-1.4969,.8926-.3722-.5448-.9486-1.0031-.9046-1.3912,.1802-1.588,.3266-3.2419,.9033-4.7078,.8056-2.0483,4.5459-2.2453,5.643-.3645,.7128,1.2223,1.2393,2.5633,1.7349,3.8937,.1154,.31-.1362,1.0398-.3915,1.1406Zm10.8723,10.1741c-1.0756,1.2634-2.2056,2.4964-3.433,3.6089-.6176,.5597-1.5311,1.1896-2.2717,1.1446-2.2563-.137-4.1708,.8634-6.1755,1.5176-2.148,.7012-4.1325,.4265-5.6812-1.0485-.8471-.8067-1.2571-2.1884-1.5751-3.3873-.1942-.7327,.465-1.2591,1.3372-1.1704,4.071,.4138,7.6082-1.2386,11.1392-2.8865,3.2765-1.5292,5.3733-4.1306,6.9185-7.3465,.6808-1.4167,.6112-2.7601,.477-4.1741-.1401-1.4765-.3864-2.943-.5224-4.4199-.0334-.3624,.0731-.9353,.3117-1.0733,.2802-.1622,.899-.0997,1.1516,.1183,.6873,.5933,1.5688,1.2235,1.8154,2.0129,.6112,1.9564,.9115,4.0097,1.3367,6.0239-.1255,.0175-.2511,.0348-.3764,.0522,.341,4.4194-1.7533,7.858-4.4519,11.028Z"></path>
    <path class="cls-1" d="M120.5067,402.6435c-.1124-1.8284,.4451-3.2535,1.2571-4.7239,.2987-.541,1.0803-1.0682,1.3552-1.6222,.3991-2.3537,.7585-4.7155,1.236-7.0533,.0795-.3888,.6513-.7003,1.0329-1.0004,1.6579-1.3028,3.4061-2.5031,4.9719-3.9071,1.2403-1.112,1.4268-2.3827,.3924-3.6872-1.0879-1.3722-2.3996-2.6855-3.8766-3.6016-1.8272-1.1331-2.2902-2.6519-2.1775-4.5507,.1375-2.3147,1.0673-4.3416,2.3845-6.2139,.5734-.8151,1.0629-1.6421,.0966-2.688-2.6962,1.4282-4.3714,3.7917-5.7162,6.3456-.6147-.4532-1.1158-.8568-1.6501-1.2107-1.5976-1.0584-2.6795-.6537-3.1648,1.1769-.1069,.4028-.2273,.8202-.2268,1.2307,.0055,3.8929-.0779,7.7911,.1005,11.6769,.1101,2.3984,.162,4.6423-1.5337,6.6071-.7911,.9166-2.9427,1.6406-3.8723,.9459-1.3576-1.0144-2.763-2.0364-3.854-3.3068-.5928-.69-.6484-1.8889-.8151-2.8804-.1571-.9341,.051-1.9608-.2389-2.8351-.8085-2.4383-1.7288-4.8455-2.7322-7.2112-.5364-1.2645,.1014-1.8118,1.0315-2.2765,1.1038-.5513,2.333-.9055,3.3303-1.5996,.7702-.5361,1.6883-1.4326,1.7479-2.2283,.0457-.6109-1.0425-1.4885-1.8094-1.9326-.9843-.5698-2.1545-.8164-3.2397-1.216-1.7464-.6433-3.75-.7618-4.9361-2.5551-.1747-.2641-.8654-.3198-1.2907-.2646-2.1561,.279-3.9458,2.3703-3.964,4.5367-.0125,1.4868-.0995,2.9759-.0425,4.4598,.1028,2.6741,.0562,5.4968,2.0701,7.5532,1.9139,1.9541,1.8605,3.8497,.787,6.1265-.7594,1.6102-1.0273,3.296,.0904,5.0196,.6388,.985,1.054,2.2027,1.2372,3.3678,.1605,1.0195-.1439,2.1119-.2429,3.1722h.0307c-.112,1.923-.1029,3.8626-.3675,5.7641-.5008,3.5992-2.45,6.6542-3.9936,9.8471-1.9089,3.9484-1.6811,6.8138,1.5462,9.7747,3.4041,3.1232,7.6124,4.9852,12.1806,5.4807,2.5933,.2812,5.2109-.4494,6.4036-3.3847,.2048-.5042,.4891-1.0536,.8978-1.3795,.7099-.5664,1.5183-1.0444,2.358-1.3736,.1252-.0492,.5919,.9658,1.004,1.3869,.2252,.2302,.9098,.4227,.9738,.3338,.6642-.9236,1.3244-1.8707,1.798-2.8982,.1398-.3033-.2763-.9014-.5037-1.329-.514-.9665-1.3323-1.8533-1.5556-2.8756-.5549-2.5412-.0361-5.0563,.5926-7.5568,.4492-1.7866,1.007-3.6519,.8969-5.4439Z"></path>
    <path class="cls-1" d="M87.2277,407.3341c.4814,.1658,1.2944,.0623,1.6647-.2648,1.6734-1.4782,3.3195-3.0059,4.8151-4.661,.7775-.8606,1.3778-1.9694,1.7558-3.0705,.2088-.6083,.0355-1.7885-.3939-2.0819-.8089-.5528-1.5195,.1536-1.9331,.9589-.3773,.7346-.6866,1.5066-1.0976,2.2208-.558,.9697-1.2708,.9139-1.8824-.024-.467-.7162-.9829-1.4224-1.587-2.022-1.0663-1.0584-2.1388-.7895-2.6127,.6565-.1755,.5361-.1783,1.1732-.098,1.7413,.2435,1.7197,.5664,3.4279,.8582,5.1407-.1346,.0474-.2692,.0951-.4038,.1427,.2978,.4419,.5128,1.1249,.9146,1.2633Z"></path>
    <path class="cls-1" d="M130.2852,407.7559c.8368,.3518,1.6584,.39,2.4207-.3612,1.2081-1.1908,1.402-2.6702,1.7289-4.3217-.4532-1.6351-.8029-3.3087-1.3903-4.8939-.5218-1.4078-1.8997-1.5299-2.5983-.2201-.9118,1.7094-1.7224,3.4988-2.3368,5.3343-.6059,1.8098,.4169,3.7232,2.1758,4.4627Z"></path>
  </g>
</svg>